<svg width="1064" height="85" viewBox="0 0 1064 85" fill="none" xmlns="http://www.w3.org/2000/svg">
<path d="M10.992 51L4.536 43.536V51H1.8V34.32H4.536V41.928L11.016 34.32H14.448L7.2 42.672L14.568 51H10.992ZM29.1075 44.064C29.1075 44.56 29.0755 45.008 29.0115 45.408H18.9075C18.9875 46.464 19.3795 47.312 20.0835 47.952C20.7875 48.592 21.6515 48.912 22.6755 48.912C24.1475 48.912 25.1875 48.296 25.7955 47.064H28.7475C28.3475 48.28 27.6195 49.28 26.5635 50.064C25.5235 50.832 24.2275 51.216 22.6755 51.216C21.4115 51.216 20.2755 50.936 19.2675 50.376C18.2755 49.8 17.4915 49 16.9155 47.976C16.3555 46.936 16.0755 45.736 16.0755 44.376C16.0755 43.016 16.3475 41.824 16.8915 40.8C17.4515 39.76 18.2275 38.96 19.2195 38.4C20.2275 37.84 21.3795 37.56 22.6755 37.56C23.9235 37.56 25.0355 37.832 26.0115 38.376C26.9875 38.92 27.7475 39.688 28.2915 40.68C28.8355 41.656 29.1075 42.784 29.1075 44.064ZM26.2515 43.2C26.2355 42.192 25.8755 41.384 25.1715 40.776C24.4675 40.168 23.5955 39.864 22.5555 39.864C21.6115 39.864 20.8035 40.168 20.1315 40.776C19.4595 41.368 19.0595 42.176 18.9315 43.2H26.2515ZM43.704 37.776L35.592 57.216H32.76L35.448 50.784L30.24 37.776H33.288L37.008 47.856L40.872 37.776H43.704ZM63.5288 37.776L59.4248 51H56.5448L53.8808 41.232L51.2168 51H48.3368L44.2088 37.776H46.9928L49.7528 48.408L52.5608 37.776H55.4168L58.1048 48.36L60.8408 37.776H63.5288ZM71.3094 51.216C70.0614 51.216 68.9334 50.936 67.9254 50.376C66.9174 49.8 66.1254 49 65.5494 47.976C64.9734 46.936 64.6854 45.736 64.6854 44.376C64.6854 43.032 64.9814 41.84 65.5734 40.8C66.1654 39.76 66.9734 38.96 67.9974 38.4C69.0214 37.84 70.1654 37.56 71.4294 37.56C72.6934 37.56 73.8374 37.84 74.8614 38.4C75.8854 38.96 76.6934 39.76 77.2854 40.8C77.8774 41.84 78.1734 43.032 78.1734 44.376C78.1734 45.72 77.8694 46.912 77.2614 47.952C76.6534 48.992 75.8214 49.8 74.7654 50.376C73.7254 50.936 72.5734 51.216 71.3094 51.216ZM71.3094 48.84C72.0134 48.84 72.6694 48.672 73.2774 48.336C73.9014 48 74.4054 47.496 74.7894 46.824C75.1734 46.152 75.3654 45.336 75.3654 44.376C75.3654 43.416 75.1814 42.608 74.8134 41.952C74.4454 41.28 73.9574 40.776 73.3494 40.44C72.7414 40.104 72.0854 39.936 71.3814 39.936C70.6774 39.936 70.0214 40.104 69.4134 40.44C68.8214 40.776 68.3494 41.28 67.9974 41.952C67.6454 42.608 67.4694 43.416 67.4694 44.376C67.4694 45.8 67.8294 46.904 68.5494 47.688C69.2854 48.456 70.2054 48.84 71.3094 48.84ZM83.6141 39.696C84.0141 39.024 84.5421 38.504 85.1981 38.136C85.8701 37.752 86.6621 37.56 87.5741 37.56V40.392H86.8781C85.8061 40.392 84.9901 40.664 84.4301 41.208C83.8861 41.752 83.6141 42.696 83.6141 44.04V51H80.8781V37.776H83.6141V39.696ZM89.1771 44.328C89.1771 43 89.4491 41.824 89.9931 40.8C90.5531 39.776 91.3051 38.984 92.2491 38.424C93.2091 37.848 94.2731 37.56 95.4411 37.56C96.3051 37.56 97.1531 37.752 97.9851 38.136C98.8331 38.504 99.5051 39 100.001 39.624V33.24H102.761V51H100.001V49.008C99.5531 49.648 98.9291 50.176 98.1291 50.592C97.3451 51.008 96.4411 51.216 95.4171 51.216C94.2651 51.216 93.2091 50.928 92.2491 50.352C91.3051 49.76 90.5531 48.944 89.9931 47.904C89.4491 46.848 89.1771 45.656 89.1771 44.328ZM100.001 44.376C100.001 43.464 99.8091 42.672 99.4251 42C99.0571 41.328 98.5691 40.816 97.9611 40.464C97.3531 40.112 96.6971 39.936 95.9931 39.936C95.2891 39.936 94.6331 40.112 94.0251 40.464C93.4171 40.8 92.9211 41.304 92.5371 41.976C92.1691 42.632 91.9851 43.416 91.9851 44.328C91.9851 45.24 92.1691 46.04 92.5371 46.728C92.9211 47.416 93.4171 47.944 94.0251 48.312C94.6491 48.664 95.3051 48.84 95.9931 48.84C96.6971 48.84 97.3531 48.664 97.9611 48.312C98.5691 47.96 99.0571 47.448 99.4251 46.776C99.8091 46.088 100.001 45.288 100.001 44.376ZM111.155 51.216C110.115 51.216 109.179 51.032 108.347 50.664C107.531 50.28 106.883 49.768 106.403 49.128C105.923 48.472 105.667 47.744 105.635 46.944H108.467C108.515 47.504 108.779 47.976 109.259 48.36C109.755 48.728 110.371 48.912 111.107 48.912C111.875 48.912 112.467 48.768 112.883 48.48C113.315 48.176 113.531 47.792 113.531 47.328C113.531 46.832 113.291 46.464 112.811 46.224C112.347 45.984 111.603 45.72 110.579 45.432C109.587 45.16 108.779 44.896 108.155 44.64C107.531 44.384 106.987 43.992 106.523 43.464C106.075 42.936 105.851 42.24 105.851 41.376C105.851 40.672 106.059 40.032 106.475 39.456C106.891 38.864 107.483 38.4 108.251 38.064C109.035 37.728 109.931 37.56 110.939 37.56C112.443 37.56 113.651 37.944 114.563 38.712C115.491 39.464 115.987 40.496 116.051 41.808H113.315C113.267 41.216 113.027 40.744 112.595 40.392C112.163 40.04 111.579 39.864 110.843 39.864C110.123 39.864 109.571 40 109.187 40.272C108.803 40.544 108.611 40.904 108.611 41.352C108.611 41.704 108.739 42 108.995 42.24C109.251 42.48 109.563 42.672 109.931 42.816C110.299 42.944 110.843 43.112 111.563 43.32C112.523 43.576 113.307 43.84 113.915 44.112C114.539 44.368 115.075 44.752 115.523 45.264C115.971 45.776 116.203 46.456 116.219 47.304C116.219 48.056 116.011 48.728 115.595 49.32C115.179 49.912 114.587 50.376 113.819 50.712C113.067 51.048 112.179 51.216 111.155 51.216Z" fill="#2405F2"/>
<path opacity="0.7" d="M196.553 36.49C197.885 36.49 199.049 36.748 200.045 37.264C201.053 37.768 201.827 38.5 202.367 39.46C202.919 40.408 203.195 41.518 203.195 42.79C203.195 44.062 202.919 45.166 202.367 46.102C201.827 47.038 201.053 47.758 200.045 48.262C199.049 48.754 197.885 49 196.553 49H192.467V36.49H196.553ZM196.553 47.326C198.017 47.326 199.139 46.93 199.919 46.138C200.699 45.346 201.089 44.23 201.089 42.79C201.089 41.338 200.699 40.204 199.919 39.388C199.139 38.572 198.017 38.164 196.553 38.164H194.519V47.326H196.553ZM214.319 43.798C214.319 44.17 214.295 44.506 214.247 44.806H206.669C206.729 45.598 207.023 46.234 207.551 46.714C208.079 47.194 208.727 47.434 209.495 47.434C210.599 47.434 211.379 46.972 211.835 46.048H214.049C213.749 46.96 213.203 47.71 212.411 48.298C211.631 48.874 210.659 49.162 209.495 49.162C208.547 49.162 207.695 48.952 206.939 48.532C206.195 48.1 205.607 47.5 205.175 46.732C204.755 45.952 204.545 45.052 204.545 44.032C204.545 43.012 204.749 42.118 205.157 41.35C205.577 40.57 206.159 39.97 206.903 39.55C207.659 39.13 208.523 38.92 209.495 38.92C210.431 38.92 211.265 39.124 211.997 39.532C212.729 39.94 213.299 40.516 213.707 41.26C214.115 41.992 214.319 42.838 214.319 43.798ZM212.177 43.15C212.165 42.394 211.895 41.788 211.367 41.332C210.839 40.876 210.185 40.648 209.405 40.648C208.697 40.648 208.091 40.876 207.587 41.332C207.083 41.776 206.783 42.382 206.687 43.15H212.177ZM219.938 49.162C219.158 49.162 218.456 49.024 217.832 48.748C217.22 48.46 216.734 48.076 216.374 47.596C216.014 47.104 215.822 46.558 215.798 45.958H217.922C217.958 46.378 218.156 46.732 218.516 47.02C218.888 47.296 219.35 47.434 219.902 47.434C220.478 47.434 220.922 47.326 221.234 47.11C221.558 46.882 221.72 46.594 221.72 46.246C221.72 45.874 221.54 45.598 221.18 45.418C220.832 45.238 220.274 45.04 219.506 44.824C218.762 44.62 218.156 44.422 217.688 44.23C217.22 44.038 216.812 43.744 216.464 43.348C216.128 42.952 215.96 42.43 215.96 41.782C215.96 41.254 216.116 40.774 216.428 40.342C216.74 39.898 217.184 39.55 217.76 39.298C218.348 39.046 219.02 38.92 219.776 38.92C220.904 38.92 221.81 39.208 222.494 39.784C223.19 40.348 223.562 41.122 223.61 42.106H221.558C221.522 41.662 221.342 41.308 221.018 41.044C220.694 40.78 220.256 40.648 219.704 40.648C219.164 40.648 218.75 40.75 218.462 40.954C218.174 41.158 218.03 41.428 218.03 41.764C218.03 42.028 218.126 42.25 218.318 42.43C218.51 42.61 218.744 42.754 219.02 42.862C219.296 42.958 219.704 43.084 220.244 43.24C220.964 43.432 221.552 43.63 222.008 43.834C222.476 44.026 222.878 44.314 223.214 44.698C223.55 45.082 223.724 45.592 223.736 46.228C223.736 46.792 223.58 47.296 223.268 47.74C222.956 48.184 222.512 48.532 221.936 48.784C221.372 49.036 220.706 49.162 219.938 49.162ZM226.998 37.768C226.626 37.768 226.314 37.642 226.062 37.39C225.81 37.138 225.684 36.826 225.684 36.454C225.684 36.082 225.81 35.77 226.062 35.518C226.314 35.266 226.626 35.14 226.998 35.14C227.358 35.14 227.664 35.266 227.916 35.518C228.168 35.77 228.294 36.082 228.294 36.454C228.294 36.826 228.168 37.138 227.916 37.39C227.664 37.642 227.358 37.768 226.998 37.768ZM228.006 39.082V49H225.954V39.082H228.006ZM234.696 38.92C235.464 38.92 236.142 39.076 236.73 39.388C237.33 39.688 237.798 40.066 238.134 40.522V39.082H240.204V49.162C240.204 50.074 240.012 50.884 239.628 51.592C239.244 52.312 238.686 52.876 237.954 53.284C237.234 53.692 236.37 53.896 235.362 53.896C234.018 53.896 232.902 53.578 232.014 52.942C231.126 52.318 230.622 51.466 230.502 50.386H232.536C232.692 50.902 233.022 51.316 233.526 51.628C234.042 51.952 234.654 52.114 235.362 52.114C236.19 52.114 236.856 51.862 237.36 51.358C237.876 50.854 238.134 50.122 238.134 49.162V47.506C237.786 47.974 237.312 48.37 236.712 48.694C236.124 49.006 235.452 49.162 234.696 49.162C233.832 49.162 233.04 48.946 232.32 48.514C231.612 48.07 231.048 47.458 230.628 46.678C230.22 45.886 230.016 44.992 230.016 43.996C230.016 43 230.22 42.118 230.628 41.35C231.048 40.582 231.612 39.988 232.32 39.568C233.04 39.136 233.832 38.92 234.696 38.92ZM238.134 44.032C238.134 43.348 237.99 42.754 237.702 42.25C237.426 41.746 237.06 41.362 236.604 41.098C236.148 40.834 235.656 40.702 235.128 40.702C234.6 40.702 234.108 40.834 233.652 41.098C233.196 41.35 232.824 41.728 232.536 42.232C232.26 42.724 232.122 43.312 232.122 43.996C232.122 44.68 232.26 45.28 232.536 45.796C232.824 46.312 233.196 46.708 233.652 46.984C234.12 47.248 234.612 47.38 235.128 47.38C235.656 47.38 236.148 47.248 236.604 46.984C237.06 46.72 237.426 46.336 237.702 45.832C237.99 45.316 238.134 44.716 238.134 44.032ZM247.903 38.92C248.683 38.92 249.379 39.082 249.991 39.406C250.615 39.73 251.101 40.21 251.449 40.846C251.797 41.482 251.971 42.25 251.971 43.15V49H249.937V43.456C249.937 42.568 249.715 41.89 249.271 41.422C248.827 40.942 248.221 40.702 247.453 40.702C246.685 40.702 246.073 40.942 245.617 41.422C245.173 41.89 244.951 42.568 244.951 43.456V49H242.899V39.082H244.951V40.216C245.287 39.808 245.713 39.49 246.229 39.262C246.757 39.034 247.315 38.92 247.903 38.92Z" fill="#282938"/>
<path opacity="0.7" d="M324.15 36.49V44.464C324.15 45.412 324.396 46.126 324.888 46.606C325.392 47.086 326.088 47.326 326.976 47.326C327.876 47.326 328.572 47.086 329.064 46.606C329.568 46.126 329.82 45.412 329.82 44.464V36.49H331.872V44.428C331.872 45.448 331.65 46.312 331.206 47.02C330.762 47.728 330.168 48.256 329.424 48.604C328.68 48.952 327.858 49.126 326.958 49.126C326.058 49.126 325.236 48.952 324.492 48.604C323.76 48.256 323.178 47.728 322.746 47.02C322.314 46.312 322.098 45.448 322.098 44.428V36.49H324.15ZM336.595 36.49V49H334.543V36.49H336.595ZM345.949 32.008L341.053 52.15H339.037L343.915 32.008H345.949ZM350.57 36.49V44.464C350.57 45.412 350.816 46.126 351.308 46.606C351.812 47.086 352.508 47.326 353.396 47.326C354.296 47.326 354.992 47.086 355.484 46.606C355.988 46.126 356.24 45.412 356.24 44.464V36.49H358.292V44.428C358.292 45.448 358.07 46.312 357.626 47.02C357.182 47.728 356.588 48.256 355.844 48.604C355.1 48.952 354.278 49.126 353.378 49.126C352.478 49.126 351.656 48.952 350.912 48.604C350.18 48.256 349.598 47.728 349.166 47.02C348.734 46.312 348.518 45.448 348.518 44.428V36.49H350.57ZM366.705 42.754L370.593 49H368.289L365.463 44.464L362.817 49H360.531L364.419 42.754L360.513 36.49H362.817L365.661 41.062L368.325 36.49H370.611L366.705 42.754Z" fill="#282938"/>
<path opacity="0.7" d="M454.64 36.49L450.932 49H448.61L445.982 39.532L443.192 49L440.888 49.018L437.342 36.49H439.52L442.112 46.678L444.92 36.49H447.224L449.834 46.624L452.444 36.49H454.64ZM457.376 37.768C457.004 37.768 456.692 37.642 456.44 37.39C456.188 37.138 456.062 36.826 456.062 36.454C456.062 36.082 456.188 35.77 456.44 35.518C456.692 35.266 457.004 35.14 457.376 35.14C457.736 35.14 458.042 35.266 458.294 35.518C458.546 35.77 458.672 36.082 458.672 36.454C458.672 36.826 458.546 37.138 458.294 37.39C458.042 37.642 457.736 37.768 457.376 37.768ZM458.384 39.082V49H456.332V39.082H458.384ZM463.131 40.522C463.431 40.018 463.827 39.628 464.319 39.352C464.823 39.064 465.417 38.92 466.101 38.92V41.044H465.579C464.775 41.044 464.163 41.248 463.743 41.656C463.335 42.064 463.131 42.772 463.131 43.78V49H461.079V39.082H463.131V40.522ZM477.077 43.798C477.077 44.17 477.053 44.506 477.005 44.806H469.427C469.487 45.598 469.781 46.234 470.309 46.714C470.837 47.194 471.485 47.434 472.253 47.434C473.357 47.434 474.137 46.972 474.593 46.048H476.807C476.507 46.96 475.961 47.71 475.169 48.298C474.389 48.874 473.417 49.162 472.253 49.162C471.305 49.162 470.453 48.952 469.697 48.532C468.953 48.1 468.365 47.5 467.933 46.732C467.513 45.952 467.303 45.052 467.303 44.032C467.303 43.012 467.507 42.118 467.915 41.35C468.335 40.57 468.917 39.97 469.661 39.55C470.417 39.13 471.281 38.92 472.253 38.92C473.189 38.92 474.023 39.124 474.755 39.532C475.487 39.94 476.057 40.516 476.465 41.26C476.873 41.992 477.077 42.838 477.077 43.798ZM474.935 43.15C474.923 42.394 474.653 41.788 474.125 41.332C473.597 40.876 472.943 40.648 472.163 40.648C471.455 40.648 470.849 40.876 470.345 41.332C469.841 41.776 469.541 42.382 469.445 43.15H474.935ZM483.254 40.756H481.418V49H479.348V40.756H478.178V39.082H479.348V38.38C479.348 37.24 479.648 36.412 480.248 35.896C480.86 35.368 481.814 35.104 483.11 35.104V36.814C482.486 36.814 482.048 36.934 481.796 37.174C481.544 37.402 481.418 37.804 481.418 38.38V39.082H483.254V40.756ZM487.125 40.522C487.425 40.018 487.821 39.628 488.313 39.352C488.817 39.064 489.411 38.92 490.095 38.92V41.044H489.573C488.769 41.044 488.157 41.248 487.737 41.656C487.329 42.064 487.125 42.772 487.125 43.78V49H485.073V39.082H487.125V40.522ZM491.297 43.996C491.297 43 491.501 42.118 491.909 41.35C492.329 40.582 492.893 39.988 493.601 39.568C494.321 39.136 495.113 38.92 495.977 38.92C496.757 38.92 497.435 39.076 498.011 39.388C498.599 39.688 499.067 40.066 499.415 40.522V39.082H501.485V49H499.415V47.524C499.067 47.992 498.593 48.382 497.993 48.694C497.393 49.006 496.709 49.162 495.941 49.162C495.089 49.162 494.309 48.946 493.601 48.514C492.893 48.07 492.329 47.458 491.909 46.678C491.501 45.886 491.297 44.992 491.297 43.996ZM499.415 44.032C499.415 43.348 499.271 42.754 498.983 42.25C498.707 41.746 498.341 41.362 497.885 41.098C497.429 40.834 496.937 40.702 496.409 40.702C495.881 40.702 495.389 40.834 494.933 41.098C494.477 41.35 494.105 41.728 493.817 42.232C493.541 42.724 493.403 43.312 493.403 43.996C493.403 44.68 493.541 45.28 493.817 45.796C494.105 46.312 494.477 46.708 494.933 46.984C495.401 47.248 495.893 47.38 496.409 47.38C496.937 47.38 497.429 47.248 497.885 46.984C498.341 46.72 498.707 46.336 498.983 45.832C499.271 45.316 499.415 44.716 499.415 44.032ZM516.186 38.92C516.966 38.92 517.662 39.082 518.274 39.406C518.898 39.73 519.384 40.21 519.732 40.846C520.092 41.482 520.272 42.25 520.272 43.15V49H518.238V43.456C518.238 42.568 518.016 41.89 517.572 41.422C517.128 40.942 516.522 40.702 515.754 40.702C514.986 40.702 514.374 40.942 513.918 41.422C513.474 41.89 513.252 42.568 513.252 43.456V49H511.218V43.456C511.218 42.568 510.996 41.89 510.552 41.422C510.108 40.942 509.502 40.702 508.734 40.702C507.966 40.702 507.354 40.942 506.898 41.422C506.454 41.89 506.232 42.568 506.232 43.456V49H504.18V39.082H506.232V40.216C506.568 39.808 506.994 39.49 507.51 39.262C508.026 39.034 508.578 38.92 509.166 38.92C509.958 38.92 510.666 39.088 511.29 39.424C511.914 39.76 512.394 40.246 512.73 40.882C513.03 40.282 513.498 39.808 514.134 39.46C514.77 39.1 515.454 38.92 516.186 38.92ZM523.927 37.768C523.555 37.768 523.243 37.642 522.991 37.39C522.739 37.138 522.613 36.826 522.613 36.454C522.613 36.082 522.739 35.77 522.991 35.518C523.243 35.266 523.555 35.14 523.927 35.14C524.287 35.14 524.593 35.266 524.845 35.518C525.097 35.77 525.223 36.082 525.223 36.454C525.223 36.826 525.097 37.138 524.845 37.39C524.593 37.642 524.287 37.768 523.927 37.768ZM524.935 39.082V49H522.883V39.082H524.935ZM532.633 38.92C533.413 38.92 534.109 39.082 534.721 39.406C535.345 39.73 535.831 40.21 536.179 40.846C536.527 41.482 536.701 42.25 536.701 43.15V49H534.667V43.456C534.667 42.568 534.445 41.89 534.001 41.422C533.557 40.942 532.951 40.702 532.183 40.702C531.415 40.702 530.803 40.942 530.347 41.422C529.903 41.89 529.681 42.568 529.681 43.456V49H527.629V39.082H529.681V40.216C530.017 39.808 530.443 39.49 530.959 39.262C531.487 39.034 532.045 38.92 532.633 38.92ZM543.315 38.92C544.083 38.92 544.761 39.076 545.349 39.388C545.949 39.688 546.417 40.066 546.753 40.522V39.082H548.823V49.162C548.823 50.074 548.631 50.884 548.247 51.592C547.863 52.312 547.305 52.876 546.573 53.284C545.853 53.692 544.989 53.896 543.981 53.896C542.637 53.896 541.521 53.578 540.633 52.942C539.745 52.318 539.241 51.466 539.121 50.386H541.155C541.311 50.902 541.641 51.316 542.145 51.628C542.661 51.952 543.273 52.114 543.981 52.114C544.809 52.114 545.475 51.862 545.979 51.358C546.495 50.854 546.753 50.122 546.753 49.162V47.506C546.405 47.974 545.931 48.37 545.331 48.694C544.743 49.006 544.071 49.162 543.315 49.162C542.451 49.162 541.659 48.946 540.939 48.514C540.231 48.07 539.667 47.458 539.247 46.678C538.839 45.886 538.635 44.992 538.635 43.996C538.635 43 538.839 42.118 539.247 41.35C539.667 40.582 540.231 39.988 540.939 39.568C541.659 39.136 542.451 38.92 543.315 38.92ZM546.753 44.032C546.753 43.348 546.609 42.754 546.321 42.25C546.045 41.746 545.679 41.362 545.223 41.098C544.767 40.834 544.275 40.702 543.747 40.702C543.219 40.702 542.727 40.834 542.271 41.098C541.815 41.35 541.443 41.728 541.155 42.232C540.879 42.724 540.741 43.312 540.741 43.996C540.741 44.68 540.879 45.28 541.155 45.796C541.443 46.312 541.815 46.708 542.271 46.984C542.739 47.248 543.231 47.38 543.747 47.38C544.275 47.38 544.767 47.248 545.223 46.984C545.679 46.72 546.045 46.336 546.321 45.832C546.609 45.316 546.753 44.716 546.753 44.032Z" fill="#282938"/>
<path opacity="0.7" d="M631.692 42.574C632.364 42.694 632.934 43.048 633.402 43.636C633.87 44.224 634.104 44.89 634.104 45.634C634.104 46.27 633.936 46.846 633.6 47.362C633.276 47.866 632.802 48.268 632.178 48.568C631.554 48.856 630.828 49 630 49H624.996V36.49H629.766C630.618 36.49 631.35 36.634 631.962 36.922C632.574 37.21 633.036 37.6 633.348 38.092C633.66 38.572 633.816 39.112 633.816 39.712C633.816 40.432 633.624 41.032 633.24 41.512C632.856 41.992 632.34 42.346 631.692 42.574ZM627.048 41.746H629.586C630.258 41.746 630.78 41.596 631.152 41.296C631.536 40.984 631.728 40.54 631.728 39.964C631.728 39.4 631.536 38.962 631.152 38.65C630.78 38.326 630.258 38.164 629.586 38.164H627.048V41.746ZM629.82 47.326C630.516 47.326 631.062 47.158 631.458 46.822C631.854 46.486 632.052 46.018 632.052 45.418C632.052 44.806 631.842 44.32 631.422 43.96C631.002 43.6 630.444 43.42 629.748 43.42H627.048V47.326H629.82ZM638.386 40.522C638.686 40.018 639.082 39.628 639.574 39.352C640.078 39.064 640.672 38.92 641.356 38.92V41.044H640.834C640.03 41.044 639.418 41.248 638.998 41.656C638.59 42.064 638.386 42.772 638.386 43.78V49H636.334V39.082H638.386V40.522ZM642.559 43.996C642.559 43 642.763 42.118 643.171 41.35C643.591 40.582 644.155 39.988 644.863 39.568C645.583 39.136 646.375 38.92 647.239 38.92C648.019 38.92 648.697 39.076 649.273 39.388C649.861 39.688 650.329 40.066 650.677 40.522V39.082H652.747V49H650.677V47.524C650.329 47.992 649.855 48.382 649.255 48.694C648.655 49.006 647.971 49.162 647.203 49.162C646.351 49.162 645.571 48.946 644.863 48.514C644.155 48.07 643.591 47.458 643.171 46.678C642.763 45.886 642.559 44.992 642.559 43.996ZM650.677 44.032C650.677 43.348 650.533 42.754 650.245 42.25C649.969 41.746 649.603 41.362 649.147 41.098C648.691 40.834 648.199 40.702 647.671 40.702C647.143 40.702 646.651 40.834 646.195 41.098C645.739 41.35 645.367 41.728 645.079 42.232C644.803 42.724 644.665 43.312 644.665 43.996C644.665 44.68 644.803 45.28 645.079 45.796C645.367 46.312 645.739 46.708 646.195 46.984C646.663 47.248 647.155 47.38 647.671 47.38C648.199 47.38 648.691 47.248 649.147 46.984C649.603 46.72 649.969 46.336 650.245 45.832C650.533 45.316 650.677 44.716 650.677 44.032ZM660.446 38.92C661.226 38.92 661.922 39.082 662.534 39.406C663.158 39.73 663.644 40.21 663.992 40.846C664.34 41.482 664.514 42.25 664.514 43.15V49H662.48V43.456C662.48 42.568 662.258 41.89 661.814 41.422C661.37 40.942 660.764 40.702 659.996 40.702C659.228 40.702 658.616 40.942 658.16 41.422C657.716 41.89 657.494 42.568 657.494 43.456V49H655.442V39.082H657.494V40.216C657.83 39.808 658.256 39.49 658.772 39.262C659.3 39.034 659.858 38.92 660.446 38.92ZM666.447 43.996C666.447 43 666.651 42.118 667.059 41.35C667.479 40.582 668.043 39.988 668.751 39.568C669.471 39.136 670.269 38.92 671.145 38.92C671.793 38.92 672.429 39.064 673.053 39.352C673.689 39.628 674.193 40 674.565 40.468V35.68H676.635V49H674.565V47.506C674.229 47.986 673.761 48.382 673.161 48.694C672.573 49.006 671.895 49.162 671.127 49.162C670.263 49.162 669.471 48.946 668.751 48.514C668.043 48.07 667.479 47.458 667.059 46.678C666.651 45.886 666.447 44.992 666.447 43.996ZM674.565 44.032C674.565 43.348 674.421 42.754 674.133 42.25C673.857 41.746 673.491 41.362 673.035 41.098C672.579 40.834 672.087 40.702 671.559 40.702C671.031 40.702 670.539 40.834 670.083 41.098C669.627 41.35 669.255 41.728 668.967 42.232C668.691 42.724 668.553 43.312 668.553 43.996C668.553 44.68 668.691 45.28 668.967 45.796C669.255 46.312 669.627 46.708 670.083 46.984C670.551 47.248 671.043 47.38 671.559 47.38C672.087 47.38 672.579 47.248 673.035 46.984C673.491 46.72 673.857 46.336 674.133 45.832C674.421 45.316 674.565 44.716 674.565 44.032ZM680.374 37.768C680.002 37.768 679.69 37.642 679.438 37.39C679.186 37.138 679.06 36.826 679.06 36.454C679.06 36.082 679.186 35.77 679.438 35.518C679.69 35.266 680.002 35.14 680.374 35.14C680.734 35.14 681.04 35.266 681.292 35.518C681.544 35.77 681.67 36.082 681.67 36.454C681.67 36.826 681.544 37.138 681.292 37.39C681.04 37.642 680.734 37.768 680.374 37.768ZM681.382 39.082V49H679.33V39.082H681.382ZM689.081 38.92C689.861 38.92 690.557 39.082 691.169 39.406C691.793 39.73 692.279 40.21 692.627 40.846C692.975 41.482 693.149 42.25 693.149 43.15V49H691.115V43.456C691.115 42.568 690.893 41.89 690.449 41.422C690.005 40.942 689.399 40.702 688.631 40.702C687.863 40.702 687.251 40.942 686.795 41.422C686.351 41.89 686.129 42.568 686.129 43.456V49H684.077V39.082H686.129V40.216C686.465 39.808 686.891 39.49 687.407 39.262C687.935 39.034 688.493 38.92 689.081 38.92ZM699.762 38.92C700.53 38.92 701.208 39.076 701.796 39.388C702.396 39.688 702.864 40.066 703.2 40.522V39.082H705.27V49.162C705.27 50.074 705.078 50.884 704.694 51.592C704.31 52.312 703.752 52.876 703.02 53.284C702.3 53.692 701.436 53.896 700.428 53.896C699.084 53.896 697.968 53.578 697.08 52.942C696.192 52.318 695.688 51.466 695.568 50.386H697.602C697.758 50.902 698.088 51.316 698.592 51.628C699.108 51.952 699.72 52.114 700.428 52.114C701.256 52.114 701.922 51.862 702.426 51.358C702.942 50.854 703.2 50.122 703.2 49.162V47.506C702.852 47.974 702.378 48.37 701.778 48.694C701.19 49.006 700.518 49.162 699.762 49.162C698.898 49.162 698.106 48.946 697.386 48.514C696.678 48.07 696.114 47.458 695.694 46.678C695.286 45.886 695.082 44.992 695.082 43.996C695.082 43 695.286 42.118 695.694 41.35C696.114 40.582 696.678 39.988 697.386 39.568C698.106 39.136 698.898 38.92 699.762 38.92ZM703.2 44.032C703.2 43.348 703.056 42.754 702.768 42.25C702.492 41.746 702.126 41.362 701.67 41.098C701.214 40.834 700.722 40.702 700.194 40.702C699.666 40.702 699.174 40.834 698.718 41.098C698.262 41.35 697.89 41.728 697.602 42.232C697.326 42.724 697.188 43.312 697.188 43.996C697.188 44.68 697.326 45.28 697.602 45.796C697.89 46.312 698.262 46.708 698.718 46.984C699.186 47.248 699.678 47.38 700.194 47.38C700.722 47.38 701.214 47.248 701.67 46.984C702.126 46.72 702.492 46.336 702.768 45.832C703.056 45.316 703.2 44.716 703.2 44.032Z" fill="#282938"/>
<path opacity="0.7" d="M781.082 36.49C782.414 36.49 783.578 36.748 784.574 37.264C785.582 37.768 786.356 38.5 786.896 39.46C787.448 40.408 787.724 41.518 787.724 42.79C787.724 44.062 787.448 45.166 786.896 46.102C786.356 47.038 785.582 47.758 784.574 48.262C783.578 48.754 782.414 49 781.082 49H776.996V36.49H781.082ZM781.082 47.326C782.546 47.326 783.668 46.93 784.448 46.138C785.228 45.346 785.618 44.23 785.618 42.79C785.618 41.338 785.228 40.204 784.448 39.388C783.668 38.572 782.546 38.164 781.082 38.164H779.048V47.326H781.082ZM798.848 43.798C798.848 44.17 798.824 44.506 798.776 44.806H791.198C791.258 45.598 791.552 46.234 792.08 46.714C792.608 47.194 793.256 47.434 794.024 47.434C795.128 47.434 795.908 46.972 796.364 46.048H798.578C798.278 46.96 797.732 47.71 796.94 48.298C796.16 48.874 795.188 49.162 794.024 49.162C793.076 49.162 792.224 48.952 791.468 48.532C790.724 48.1 790.136 47.5 789.704 46.732C789.284 45.952 789.074 45.052 789.074 44.032C789.074 43.012 789.278 42.118 789.686 41.35C790.106 40.57 790.688 39.97 791.432 39.55C792.188 39.13 793.052 38.92 794.024 38.92C794.96 38.92 795.794 39.124 796.526 39.532C797.258 39.94 797.828 40.516 798.236 41.26C798.644 41.992 798.848 42.838 798.848 43.798ZM796.706 43.15C796.694 42.394 796.424 41.788 795.896 41.332C795.368 40.876 794.714 40.648 793.934 40.648C793.226 40.648 792.62 40.876 792.116 41.332C791.612 41.776 791.312 42.382 791.216 43.15H796.706ZM804.702 47.164L807.51 39.082H809.688L805.908 49H803.46L799.698 39.082H801.894L804.702 47.164ZM820.329 43.798C820.329 44.17 820.305 44.506 820.257 44.806H812.679C812.739 45.598 813.033 46.234 813.561 46.714C814.089 47.194 814.737 47.434 815.505 47.434C816.609 47.434 817.389 46.972 817.845 46.048H820.059C819.759 46.96 819.213 47.71 818.421 48.298C817.641 48.874 816.669 49.162 815.505 49.162C814.557 49.162 813.705 48.952 812.949 48.532C812.205 48.1 811.617 47.5 811.185 46.732C810.765 45.952 810.555 45.052 810.555 44.032C810.555 43.012 810.759 42.118 811.167 41.35C811.587 40.57 812.169 39.97 812.913 39.55C813.669 39.13 814.533 38.92 815.505 38.92C816.441 38.92 817.275 39.124 818.007 39.532C818.739 39.94 819.309 40.516 819.717 41.26C820.125 41.992 820.329 42.838 820.329 43.798ZM818.187 43.15C818.175 42.394 817.905 41.788 817.377 41.332C816.849 40.876 816.195 40.648 815.415 40.648C814.707 40.648 814.101 40.876 813.597 41.332C813.093 41.776 812.793 42.382 812.697 43.15H818.187ZM824.4 35.68V49H822.348V35.68H824.4ZM831.396 49.162C830.46 49.162 829.614 48.952 828.858 48.532C828.102 48.1 827.508 47.5 827.076 46.732C826.644 45.952 826.428 45.052 826.428 44.032C826.428 43.024 826.65 42.13 827.094 41.35C827.538 40.57 828.144 39.97 828.912 39.55C829.68 39.13 830.538 38.92 831.486 38.92C832.434 38.92 833.292 39.13 834.06 39.55C834.828 39.97 835.434 40.57 835.878 41.35C836.322 42.13 836.544 43.024 836.544 44.032C836.544 45.04 836.316 45.934 835.86 46.714C835.404 47.494 834.78 48.1 833.988 48.532C833.208 48.952 832.344 49.162 831.396 49.162ZM831.396 47.38C831.924 47.38 832.416 47.254 832.872 47.002C833.34 46.75 833.718 46.372 834.006 45.868C834.294 45.364 834.438 44.752 834.438 44.032C834.438 43.312 834.3 42.706 834.024 42.214C833.748 41.71 833.382 41.332 832.926 41.08C832.47 40.828 831.978 40.702 831.45 40.702C830.922 40.702 830.43 40.828 829.974 41.08C829.53 41.332 829.176 41.71 828.912 42.214C828.648 42.706 828.516 43.312 828.516 44.032C828.516 45.1 828.786 45.928 829.326 46.516C829.878 47.092 830.568 47.38 831.396 47.38ZM840.625 40.54C840.973 40.084 841.447 39.7 842.047 39.388C842.647 39.076 843.325 38.92 844.081 38.92C844.945 38.92 845.731 39.136 846.439 39.568C847.159 39.988 847.723 40.582 848.131 41.35C848.539 42.118 848.743 43 848.743 43.996C848.743 44.992 848.539 45.886 848.131 46.678C847.723 47.458 847.159 48.07 846.439 48.514C845.731 48.946 844.945 49.162 844.081 49.162C843.325 49.162 842.653 49.012 842.065 48.712C841.477 48.4 840.997 48.016 840.625 47.56V53.716H838.573V39.082H840.625V40.54ZM846.655 43.996C846.655 43.312 846.511 42.724 846.223 42.232C845.947 41.728 845.575 41.35 845.107 41.098C844.651 40.834 844.159 40.702 843.631 40.702C843.115 40.702 842.623 40.834 842.155 41.098C841.699 41.362 841.327 41.746 841.039 42.25C840.763 42.754 840.625 43.348 840.625 44.032C840.625 44.716 840.763 45.316 841.039 45.832C841.327 46.336 841.699 46.72 842.155 46.984C842.623 47.248 843.115 47.38 843.631 47.38C844.159 47.38 844.651 47.248 845.107 46.984C845.575 46.708 845.947 46.312 846.223 45.796C846.511 45.28 846.655 44.68 846.655 43.996ZM862.778 38.92C863.558 38.92 864.254 39.082 864.866 39.406C865.49 39.73 865.976 40.21 866.324 40.846C866.684 41.482 866.864 42.25 866.864 43.15V49H864.83V43.456C864.83 42.568 864.608 41.89 864.164 41.422C863.72 40.942 863.114 40.702 862.346 40.702C861.578 40.702 860.966 40.942 860.51 41.422C860.066 41.89 859.844 42.568 859.844 43.456V49H857.81V43.456C857.81 42.568 857.588 41.89 857.144 41.422C856.7 40.942 856.094 40.702 855.326 40.702C854.558 40.702 853.946 40.942 853.49 41.422C853.046 41.89 852.824 42.568 852.824 43.456V49H850.772V39.082H852.824V40.216C853.16 39.808 853.586 39.49 854.102 39.262C854.618 39.034 855.17 38.92 855.758 38.92C856.55 38.92 857.258 39.088 857.882 39.424C858.506 39.76 858.986 40.246 859.322 40.882C859.622 40.282 860.09 39.808 860.726 39.46C861.362 39.1 862.046 38.92 862.778 38.92ZM878.565 43.798C878.565 44.17 878.541 44.506 878.493 44.806H870.915C870.975 45.598 871.269 46.234 871.797 46.714C872.325 47.194 872.973 47.434 873.741 47.434C874.845 47.434 875.625 46.972 876.081 46.048H878.295C877.995 46.96 877.449 47.71 876.657 48.298C875.877 48.874 874.905 49.162 873.741 49.162C872.793 49.162 871.941 48.952 871.185 48.532C870.441 48.1 869.853 47.5 869.421 46.732C869.001 45.952 868.791 45.052 868.791 44.032C868.791 43.012 868.995 42.118 869.403 41.35C869.823 40.57 870.405 39.97 871.149 39.55C871.905 39.13 872.769 38.92 873.741 38.92C874.677 38.92 875.511 39.124 876.243 39.532C876.975 39.94 877.545 40.516 877.953 41.26C878.361 41.992 878.565 42.838 878.565 43.798ZM876.423 43.15C876.411 42.394 876.141 41.788 875.613 41.332C875.085 40.876 874.431 40.648 873.651 40.648C872.943 40.648 872.337 40.876 871.833 41.332C871.329 41.776 871.029 42.382 870.933 43.15H876.423ZM885.588 38.92C886.368 38.92 887.064 39.082 887.676 39.406C888.3 39.73 888.786 40.21 889.134 40.846C889.482 41.482 889.656 42.25 889.656 43.15V49H887.622V43.456C887.622 42.568 887.4 41.89 886.956 41.422C886.512 40.942 885.906 40.702 885.138 40.702C884.37 40.702 883.758 40.942 883.302 41.422C882.858 41.89 882.636 42.568 882.636 43.456V49H880.584V39.082H882.636V40.216C882.972 39.808 883.398 39.49 883.914 39.262C884.442 39.034 885 38.92 885.588 38.92ZM894.668 40.756V46.246C894.668 46.618 894.752 46.888 894.92 47.056C895.1 47.212 895.4 47.29 895.82 47.29H897.08V49H895.46C894.536 49 893.828 48.784 893.336 48.352C892.844 47.92 892.598 47.218 892.598 46.246V40.756H891.428V39.082H892.598V36.616H894.668V39.082H897.08V40.756H894.668Z" fill="#282938"/>
<path opacity="0.7" d="M985.906 39.082L982.828 49H980.668L978.67 41.674L976.672 49H974.512L971.416 39.082H973.504L975.574 47.056L977.68 39.082H979.822L981.838 47.02L983.89 39.082H985.906ZM996.53 43.798C996.53 44.17 996.506 44.506 996.458 44.806H988.88C988.94 45.598 989.234 46.234 989.762 46.714C990.29 47.194 990.938 47.434 991.706 47.434C992.81 47.434 993.59 46.972 994.046 46.048H996.26C995.96 46.96 995.414 47.71 994.622 48.298C993.842 48.874 992.87 49.162 991.706 49.162C990.758 49.162 989.906 48.952 989.15 48.532C988.406 48.1 987.818 47.5 987.386 46.732C986.966 45.952 986.756 45.052 986.756 44.032C986.756 43.012 986.96 42.118 987.368 41.35C987.788 40.57 988.37 39.97 989.114 39.55C989.87 39.13 990.734 38.92 991.706 38.92C992.642 38.92 993.476 39.124 994.208 39.532C994.94 39.94 995.51 40.516 995.918 41.26C996.326 41.992 996.53 42.838 996.53 43.798ZM994.388 43.15C994.376 42.394 994.106 41.788 993.578 41.332C993.05 40.876 992.396 40.648 991.616 40.648C990.908 40.648 990.302 40.876 989.798 41.332C989.294 41.776 988.994 42.382 988.898 43.15H994.388ZM1000.6 40.558C1000.95 40.078 1001.42 39.688 1002.02 39.388C1002.64 39.076 1003.31 38.92 1004.06 38.92C1004.93 38.92 1005.73 39.13 1006.43 39.55C1007.14 39.97 1007.7 40.57 1008.11 41.35C1008.52 42.118 1008.72 43 1008.72 43.996C1008.72 44.992 1008.52 45.886 1008.11 46.678C1007.7 47.458 1007.14 48.07 1006.42 48.514C1005.71 48.946 1004.92 49.162 1004.06 49.162C1003.29 49.162 1002.61 49.012 1002.01 48.712C1001.42 48.412 1000.95 48.028 1000.6 47.56V49H998.549V35.68H1000.6V40.558ZM1006.63 43.996C1006.63 43.312 1006.49 42.724 1006.2 42.232C1005.92 41.728 1005.55 41.35 1005.08 41.098C1004.63 40.834 1004.14 40.702 1003.61 40.702C1003.09 40.702 1002.6 40.834 1002.13 41.098C1001.68 41.362 1001.3 41.746 1001.02 42.25C1000.74 42.754 1000.6 43.348 1000.6 44.032C1000.6 44.716 1000.74 45.316 1001.02 45.832C1001.3 46.336 1001.68 46.72 1002.13 46.984C1002.6 47.248 1003.09 47.38 1003.61 47.38C1004.14 47.38 1004.63 47.248 1005.08 46.984C1005.55 46.708 1005.92 46.312 1006.2 45.796C1006.49 45.28 1006.63 44.68 1006.63 43.996ZM1014.91 40.756H1013.07V49H1011V40.756H1009.83V39.082H1011V38.38C1011 37.24 1011.3 36.412 1011.9 35.896C1012.51 35.368 1013.47 35.104 1014.76 35.104V36.814C1014.14 36.814 1013.7 36.934 1013.45 37.174C1013.2 37.402 1013.07 37.804 1013.07 38.38V39.082H1014.91V40.756ZM1018.78 35.68V49H1016.73V35.68H1018.78ZM1025.77 49.162C1024.84 49.162 1023.99 48.952 1023.24 48.532C1022.48 48.1 1021.89 47.5 1021.45 46.732C1021.02 45.952 1020.81 45.052 1020.81 44.032C1020.81 43.024 1021.03 42.13 1021.47 41.35C1021.92 40.57 1022.52 39.97 1023.29 39.55C1024.06 39.13 1024.92 38.92 1025.86 38.92C1026.81 38.92 1027.67 39.13 1028.44 39.55C1029.21 39.97 1029.81 40.57 1030.26 41.35C1030.7 42.13 1030.92 43.024 1030.92 44.032C1030.92 45.04 1030.69 45.934 1030.24 46.714C1029.78 47.494 1029.16 48.1 1028.37 48.532C1027.59 48.952 1026.72 49.162 1025.77 49.162ZM1025.77 47.38C1026.3 47.38 1026.79 47.254 1027.25 47.002C1027.72 46.75 1028.1 46.372 1028.38 45.868C1028.67 45.364 1028.82 44.752 1028.82 44.032C1028.82 43.312 1028.68 42.706 1028.4 42.214C1028.13 41.71 1027.76 41.332 1027.3 41.08C1026.85 40.828 1026.36 40.702 1025.83 40.702C1025.3 40.702 1024.81 40.828 1024.35 41.08C1023.91 41.332 1023.55 41.71 1023.29 42.214C1023.03 42.706 1022.89 43.312 1022.89 44.032C1022.89 45.1 1023.16 45.928 1023.7 46.516C1024.26 47.092 1024.95 47.38 1025.77 47.38ZM1046.27 39.082L1043.19 49H1041.03L1039.03 41.674L1037.04 49H1034.88L1031.78 39.082H1033.87L1035.94 47.056L1038.04 39.082H1040.19L1042.2 47.02L1044.25 39.082H1046.27Z" fill="#282938"/>
<line opacity="0.2" y1="0.5" x2="1064" y2="0.5" stroke="#282938"/>
<line opacity="0.2" y1="84.5" x2="1064" y2="84.5" stroke="#282938"/>
</svg>
