<svg width="150" height="24" viewBox="0 0 150 24" fill="none" xmlns="http://www.w3.org/2000/svg">
<path d="M10.784 6.88L6.608 18H4.496L0.304 6.88H2.256L5.552 16.128L8.864 6.88H10.784ZM13.2374 8.016C12.9067 8.016 12.6294 7.904 12.4054 7.68C12.1814 7.456 12.0694 7.17867 12.0694 6.848C12.0694 6.51733 12.1814 6.24 12.4054 6.016C12.6294 5.792 12.9067 5.68 13.2374 5.68C13.5574 5.68 13.8294 5.792 14.0534 6.016C14.2774 6.24 14.3894 6.51733 14.3894 6.848C14.3894 7.17867 14.2774 7.456 14.0534 7.68C13.8294 7.904 13.5574 8.016 13.2374 8.016ZM14.1334 9.184V18H12.3094V9.184H14.1334ZM24.6081 13.376C24.6081 13.7067 24.5868 14.0053 24.5441 14.272H17.8081C17.8615 14.976 18.1228 15.5413 18.5921 15.968C19.0615 16.3947 19.6375 16.608 20.3201 16.608C21.3015 16.608 21.9948 16.1973 22.4001 15.376H24.3681C24.1015 16.1867 23.6161 16.8533 22.9121 17.376C22.2188 17.888 21.3548 18.144 20.3201 18.144C19.4775 18.144 18.7201 17.9573 18.0481 17.584C17.3868 17.2 16.8641 16.6667 16.4801 15.984C16.1068 15.2907 15.9201 14.4907 15.9201 13.584C15.9201 12.6773 16.1015 11.8827 16.4641 11.2C16.8375 10.5067 17.3548 9.97333 18.0161 9.6C18.6881 9.22667 19.4561 9.04 20.3201 9.04C21.1521 9.04 21.8935 9.22133 22.5441 9.584C23.1948 9.94667 23.7015 10.4587 24.0641 11.12C24.4268 11.7707 24.6081 12.5227 24.6081 13.376ZM22.7041 12.8C22.6935 12.128 22.4535 11.5893 21.9841 11.184C21.5148 10.7787 20.9335 10.576 20.2401 10.576C19.6108 10.576 19.0721 10.7787 18.6241 11.184C18.1761 11.5787 17.9095 12.1173 17.8241 12.8H22.7041ZM38.2431 9.184L35.5071 18H33.5871L31.8111 11.488L30.0351 18H28.1151L25.3631 9.184H27.2191L29.0591 16.272L30.9311 9.184H32.8351L34.6271 16.24L36.4511 9.184H38.2431ZM51.5385 10.192C51.5385 10.7573 51.4052 11.2907 51.1385 11.792C50.8718 12.2933 50.4452 12.704 49.8585 13.024C49.2718 13.3333 48.5198 13.488 47.6025 13.488H45.5865V18H43.7625V6.88H47.6025C48.4558 6.88 49.1758 7.02933 49.7625 7.328C50.3598 7.616 50.8025 8.01067 51.0905 8.512C51.3892 9.01333 51.5385 9.57333 51.5385 10.192ZM47.6025 12C48.2958 12 48.8132 11.8453 49.1545 11.536C49.4958 11.216 49.6665 10.768 49.6665 10.192C49.6665 8.976 48.9785 8.368 47.6025 8.368H45.5865V12H47.6025ZM57.1021 18.144C56.2701 18.144 55.5181 17.9573 54.8461 17.584C54.1741 17.2 53.6461 16.6667 53.2621 15.984C52.8781 15.2907 52.6861 14.4907 52.6861 13.584C52.6861 12.688 52.8835 11.8933 53.2781 11.2C53.6728 10.5067 54.2115 9.97333 54.8941 9.6C55.5768 9.22667 56.3395 9.04 57.1821 9.04C58.0248 9.04 58.7875 9.22667 59.4701 9.6C60.1528 9.97333 60.6915 10.5067 61.0861 11.2C61.4808 11.8933 61.6781 12.688 61.6781 13.584C61.6781 14.48 61.4755 15.2747 61.0701 15.968C60.6648 16.6613 60.1101 17.2 59.4061 17.584C58.7128 17.9573 57.9448 18.144 57.1021 18.144ZM57.1021 16.56C57.5715 16.56 58.0088 16.448 58.4141 16.224C58.8301 16 59.1661 15.664 59.4221 15.216C59.6781 14.768 59.8061 14.224 59.8061 13.584C59.8061 12.944 59.6835 12.4053 59.4381 11.968C59.1928 11.52 58.8675 11.184 58.4621 10.96C58.0568 10.736 57.6195 10.624 57.1501 10.624C56.6808 10.624 56.2435 10.736 55.8381 10.96C55.4435 11.184 55.1288 11.52 54.8941 11.968C54.6595 12.4053 54.5421 12.944 54.5421 13.584C54.5421 14.5333 54.7821 15.2693 55.2621 15.792C55.7528 16.304 56.3661 16.56 57.1021 16.56ZM65.3053 10.464C65.5719 10.016 65.9239 9.66933 66.3613 9.424C66.8093 9.168 67.3373 9.04 67.9453 9.04V10.928H67.4813C66.7666 10.928 66.2226 11.1093 65.8493 11.472C65.4866 11.8347 65.3053 12.464 65.3053 13.36V18H63.4813V9.184H65.3053V10.464ZM71.7499 10.672V15.552C71.7499 15.8827 71.8245 16.1227 71.9739 16.272C72.1339 16.4107 72.4005 16.48 72.7739 16.48H73.8939V18H72.4539C71.6325 18 71.0032 17.808 70.5659 17.424C70.1285 17.04 69.9099 16.416 69.9099 15.552V10.672H68.8699V9.184H69.9099V6.992H71.7499V9.184H73.8939V10.672H71.7499ZM79.271 10.672H77.639V18H75.799V10.672H74.759V9.184H75.799V8.56C75.799 7.54667 76.0657 6.81067 76.599 6.352C77.143 5.88267 77.991 5.648 79.143 5.648V7.168C78.5883 7.168 78.199 7.27467 77.975 7.488C77.751 7.69067 77.639 8.048 77.639 8.56V9.184H79.271V10.672ZM84.7115 18.144C83.8795 18.144 83.1275 17.9573 82.4555 17.584C81.7835 17.2 81.2555 16.6667 80.8715 15.984C80.4875 15.2907 80.2955 14.4907 80.2955 13.584C80.2955 12.688 80.4928 11.8933 80.8875 11.2C81.2822 10.5067 81.8208 9.97333 82.5035 9.6C83.1862 9.22667 83.9488 9.04 84.7915 9.04C85.6342 9.04 86.3968 9.22667 87.0795 9.6C87.7622 9.97333 88.3008 10.5067 88.6955 11.2C89.0902 11.8933 89.2875 12.688 89.2875 13.584C89.2875 14.48 89.0848 15.2747 88.6795 15.968C88.2742 16.6613 87.7195 17.2 87.0155 17.584C86.3222 17.9573 85.5542 18.144 84.7115 18.144ZM84.7115 16.56C85.1808 16.56 85.6182 16.448 86.0235 16.224C86.4395 16 86.7755 15.664 87.0315 15.216C87.2875 14.768 87.4155 14.224 87.4155 13.584C87.4155 12.944 87.2928 12.4053 87.0475 11.968C86.8022 11.52 86.4768 11.184 86.0715 10.96C85.6662 10.736 85.2288 10.624 84.7595 10.624C84.2902 10.624 83.8528 10.736 83.4475 10.96C83.0528 11.184 82.7382 11.52 82.5035 11.968C82.2688 12.4053 82.1515 12.944 82.1515 13.584C82.1515 14.5333 82.3915 15.2693 82.8715 15.792C83.3622 16.304 83.9755 16.56 84.7115 16.56ZM92.9146 6.16V18H91.0906V6.16H92.9146ZM96.2374 8.016C95.9067 8.016 95.6294 7.904 95.4054 7.68C95.1814 7.456 95.0694 7.17867 95.0694 6.848C95.0694 6.51733 95.1814 6.24 95.4054 6.016C95.6294 5.792 95.9067 5.68 96.2374 5.68C96.5574 5.68 96.8294 5.792 97.0534 6.016C97.2774 6.24 97.3894 6.51733 97.3894 6.848C97.3894 7.17867 97.2774 7.456 97.0534 7.68C96.8294 7.904 96.5574 8.016 96.2374 8.016ZM97.1334 9.184V18H95.3094V9.184H97.1334ZM103.352 18.144C102.52 18.144 101.768 17.9573 101.096 17.584C100.424 17.2 99.8961 16.6667 99.5121 15.984C99.1281 15.2907 98.9361 14.4907 98.9361 13.584C98.9361 12.688 99.1335 11.8933 99.5281 11.2C99.9228 10.5067 100.461 9.97333 101.144 9.6C101.827 9.22667 102.589 9.04 103.432 9.04C104.275 9.04 105.037 9.22667 105.72 9.6C106.403 9.97333 106.941 10.5067 107.336 11.2C107.731 11.8933 107.928 12.688 107.928 13.584C107.928 14.48 107.725 15.2747 107.32 15.968C106.915 16.6613 106.36 17.2 105.656 17.584C104.963 17.9573 104.195 18.144 103.352 18.144ZM103.352 16.56C103.821 16.56 104.259 16.448 104.664 16.224C105.08 16 105.416 15.664 105.672 15.216C105.928 14.768 106.056 14.224 106.056 13.584C106.056 12.944 105.933 12.4053 105.688 11.968C105.443 11.52 105.117 11.184 104.712 10.96C104.307 10.736 103.869 10.624 103.4 10.624C102.931 10.624 102.493 10.736 102.088 10.96C101.693 11.184 101.379 11.52 101.144 11.968C100.909 12.4053 100.792 12.944 100.792 13.584C100.792 14.5333 101.032 15.2693 101.512 15.792C102.003 16.304 102.616 16.56 103.352 16.56Z" fill="#282938"/>
<path d="M149.707 12.7071C150.098 12.3166 150.098 11.6834 149.707 11.2929L143.343 4.92893C142.953 4.53841 142.319 4.53841 141.929 4.92893C141.538 5.31946 141.538 5.95262 141.929 6.34314L147.586 12L141.929 17.6569C141.538 18.0474 141.538 18.6805 141.929 19.0711C142.319 19.4616 142.953 19.4616 143.343 19.0711L149.707 12.7071ZM125 13L149 13L149 11L125 11L125 13Z" fill="#282938"/>
</svg>
