<svg width="1280" height="84" viewBox="0 0 1280 84" fill="none" xmlns="http://www.w3.org/2000/svg">
<g opacity="0.8">
<g clip-path="url(#clip0_904_1037)">
<path d="M289.723 42.0828C289.273 42.5374 288.928 43.086 288.714 43.6896C288.499 44.2932 288.42 44.9369 288.481 45.5749L288.46 45.5534C288.523 46.3043 288.422 47.06 288.164 47.7677C287.906 48.4755 287.498 49.1182 286.967 49.6511C286.436 50.184 285.796 50.5942 285.091 50.853C284.386 51.1118 283.634 51.213 282.886 51.1497L282.907 51.1711C282.012 51.0875 281.114 51.2829 280.334 51.7308C279.554 52.1787 278.93 52.8573 278.549 53.6739C278.167 54.4905 278.045 55.4056 278.2 56.2941C278.355 57.1827 278.78 58.0016 279.415 58.6393C280.051 59.2768 280.867 59.7021 281.752 59.857C282.637 60.012 283.549 59.8889 284.362 59.5049C285.175 59.1209 285.85 58.4943 286.295 57.7109C286.741 56.9273 286.935 56.025 286.851 55.1269L286.873 55.1483C286.81 54.3974 286.911 53.6417 287.169 52.9339C287.426 52.2262 287.835 51.5834 288.366 51.0506C288.897 50.5177 289.537 50.1076 290.242 49.8488C290.946 49.5899 291.699 49.4887 292.447 49.5521L292.425 49.5306C293.155 49.5966 293.891 49.4763 294.563 49.1808C295.235 48.8854 295.822 48.4244 296.27 47.8405C296.717 47.2567 297.011 46.5689 297.123 45.8408C297.235 45.1128 297.162 44.368 296.912 43.6757C296.661 42.9833 296.24 42.3657 295.688 41.8802C295.136 41.3946 294.471 41.0568 293.755 40.8979C293.038 40.739 292.294 40.7643 291.589 40.9715C290.885 41.1786 290.244 41.5609 289.727 42.0828H289.723Z" fill="#282938"/>
<path d="M280.964 48.3602L280.941 48.3388C281.577 48.4031 282.219 48.3247 282.821 48.1094C283.422 47.8942 283.969 47.5472 284.421 47.0938C284.873 46.6404 285.219 46.0918 285.434 45.4878C285.649 44.8837 285.727 44.2392 285.664 43.6009L285.686 43.6223C285.623 42.8715 285.724 42.1157 285.982 41.408C286.24 40.7003 286.648 40.0575 287.179 39.5247C287.71 38.9918 288.35 38.5816 289.055 38.3228C289.76 38.0639 290.512 37.9627 291.26 38.0261L291.238 38.0047C292.132 38.089 293.031 37.8942 293.812 37.4468C294.592 36.9994 295.216 36.3212 295.598 35.5047C295.981 34.6882 296.103 33.7731 295.948 32.8843C295.794 31.9955 295.37 31.1762 294.734 30.5382C294.099 29.9002 293.283 29.4746 292.398 29.3193C291.512 29.1641 290.601 29.2868 289.788 29.6707C288.974 30.0546 288.299 30.681 287.853 31.4646C287.408 32.2481 287.214 33.1506 287.298 34.0489L287.276 34.0262C287.34 34.7772 287.239 35.533 286.981 36.2408C286.724 36.9487 286.315 37.5915 285.784 38.1244C285.253 38.6574 284.613 39.0675 283.908 39.3263C283.203 39.585 282.45 39.6861 281.702 39.6224L281.724 39.6451C281.088 39.5808 280.446 39.6591 279.844 39.8745C279.242 40.0897 278.696 40.4367 278.244 40.8901C277.792 41.3435 277.446 41.8921 277.231 42.4961C277.016 43.1003 276.938 43.7447 277.001 44.383L276.98 44.3615C277.043 45.1124 276.942 45.868 276.684 46.5757C276.426 47.2833 276.017 47.926 275.487 48.4588C274.956 48.9917 274.316 49.4018 273.611 49.6607C272.906 49.9196 272.154 50.021 271.406 49.9578L271.427 49.9792C270.532 49.8949 269.634 50.0897 268.853 50.5371C268.073 50.9845 267.449 51.6627 267.066 52.4792C266.684 53.2958 266.562 54.2108 266.717 55.0996C266.871 55.9884 267.295 56.8077 267.931 57.4457C268.566 58.0837 269.382 58.5093 270.267 58.6646C271.153 58.8198 272.064 58.6972 272.877 58.3133C273.69 57.9294 274.366 57.3029 274.812 56.5194C275.257 55.7359 275.451 54.8334 275.367 53.935L275.39 53.9565C275.327 53.2056 275.428 52.4498 275.685 51.7422C275.943 51.0344 276.352 50.3917 276.882 49.8588C277.413 49.3259 278.053 48.9157 278.758 48.6569C279.463 48.3981 280.216 48.2969 280.964 48.3602Z" fill="#282938"/>
<path d="M273.005 45.9676C273.455 45.5131 273.8 44.9645 274.014 44.3608C274.229 43.7571 274.308 43.1135 274.246 42.4755L274.268 42.497C274.205 41.7459 274.306 40.99 274.564 40.282C274.822 39.5741 275.231 38.9313 275.762 38.3983C276.293 37.8654 276.933 37.4553 277.638 37.1966C278.344 36.938 279.097 36.837 279.845 36.9008L279.822 36.8793C280.716 36.9634 281.615 36.7685 282.395 36.3212C283.175 35.8738 283.799 35.1958 284.181 34.3795C284.563 33.5632 284.685 32.6485 284.53 31.76C284.376 30.8716 283.952 30.0526 283.317 29.4148C282.682 28.7771 281.866 28.3516 280.981 28.1963C280.096 28.041 279.185 28.1636 278.372 28.5473C277.559 28.931 276.884 29.5571 276.438 30.3403C275.992 31.1234 275.798 32.0255 275.882 32.9235L275.861 32.9021C275.924 33.653 275.823 34.4087 275.565 35.1164C275.307 35.8242 274.899 36.4669 274.368 36.9998C273.837 37.5327 273.197 37.9428 272.492 38.2017C271.787 38.4605 271.035 38.5618 270.287 38.4983L270.308 38.5198C269.577 38.454 268.842 38.5745 268.17 38.8701C267.498 39.1656 266.911 39.6267 266.463 40.2107C266.016 40.7946 265.723 41.4824 265.611 42.2104C265.499 42.9385 265.571 43.6832 265.822 44.3754C266.073 45.0676 266.494 45.6851 267.046 46.1706C267.598 46.6562 268.263 46.9939 268.979 47.1527C269.696 47.3115 270.441 47.2861 271.145 47.0789C271.849 46.8718 272.489 46.4895 273.007 45.9676H273.005Z" fill="#282938"/>
<path d="M309.788 34.0762H313.315V51.3073H309.788V34.0762Z" fill="#282938"/>
<path d="M315.313 45.4075C315.308 44.1692 315.669 42.9574 316.351 41.9254C317.032 40.8934 318.004 40.0876 319.142 39.6104C320.28 39.133 321.533 39.0056 322.743 39.2442C323.954 39.4827 325.066 40.0764 325.94 40.9503C326.814 41.8241 327.41 42.9387 327.652 44.1529C327.895 45.367 327.773 46.6261 327.302 47.7706C326.831 48.9151 326.033 49.8936 325.007 50.582C323.982 51.2705 322.777 51.638 321.543 51.638C320.725 51.6474 319.912 51.4929 319.154 51.1834C318.395 50.8739 317.706 50.4157 317.126 49.8356C316.545 49.2555 316.086 48.5652 315.775 47.8048C315.464 47.0445 315.307 46.2296 315.313 45.4075ZM324.247 45.4075C324.232 44.8738 324.061 44.3563 323.755 43.9195C323.449 43.4829 323.022 43.1466 322.526 42.9525C322.031 42.7584 321.489 42.7153 320.97 42.8285C320.45 42.9418 319.975 43.2063 319.604 43.589C319.233 43.9718 318.983 44.4558 318.885 44.9805C318.786 45.5053 318.844 46.0475 319.051 46.5394C319.258 47.0313 319.605 47.451 320.048 47.7461C320.491 48.0411 321.011 48.1986 321.543 48.1985C321.907 48.2083 322.27 48.1422 322.607 48.0043C322.945 47.8666 323.25 47.66 323.504 47.3978C323.758 47.1355 323.955 46.8234 324.083 46.4808C324.211 46.1383 324.267 45.7728 324.247 45.4075Z" fill="#282938"/>
<path d="M341.83 39.5054V50.7123C341.83 54.6776 338.75 56.3539 335.624 56.3539C334.523 56.4366 333.42 56.2133 332.438 55.7086C331.455 55.2038 330.629 54.4371 330.052 53.4925L333.061 51.7459C333.304 52.2383 333.69 52.6446 334.169 52.9102C334.648 53.1759 335.197 53.2883 335.741 53.2326C336.089 53.281 336.443 53.2502 336.778 53.1426C337.112 53.035 337.418 52.8531 337.673 52.6107C337.928 52.3683 338.126 52.0713 338.251 51.7419C338.377 51.4125 338.427 51.0589 338.397 50.7075V49.6286C337.984 50.1359 337.459 50.539 336.863 50.8054C336.267 51.0719 335.616 51.1943 334.965 51.1629C333.413 51.1139 331.942 50.4607 330.862 49.3417C329.783 48.2228 329.179 46.7259 329.179 45.1679C329.179 43.6099 329.783 42.1129 330.862 40.9939C331.942 39.8751 333.413 39.2219 334.965 39.1728C335.616 39.1414 336.267 39.2639 336.863 39.5303C337.459 39.7968 337.984 40.1999 338.397 40.7072V39.503L341.83 39.5054ZM338.399 45.1697C338.422 44.599 338.275 44.0343 337.977 43.5482C337.678 43.0621 337.241 42.6769 336.723 42.442C336.204 42.2073 335.628 42.1337 335.067 42.2307C334.506 42.3278 333.988 42.591 333.577 42.9866C333.167 43.3823 332.884 43.8921 332.765 44.4505C332.645 45.009 332.695 45.5905 332.908 46.1203C333.121 46.6499 333.486 47.1036 333.958 47.4229C334.43 47.7422 334.986 47.9124 335.555 47.9118C335.925 47.9377 336.297 47.8854 336.646 47.7584C336.996 47.6313 337.314 47.4322 337.582 47.1739C337.85 46.9155 338.061 46.6037 338.202 46.2585C338.342 45.9134 338.41 45.5425 338.399 45.1697Z" fill="#282938"/>
<path d="M343.827 45.4075C343.822 44.1692 344.184 42.9574 344.865 41.9254C345.547 40.8934 346.518 40.0876 347.656 39.6104C348.794 39.133 350.048 39.0056 351.258 39.2442C352.468 39.4827 353.581 40.0764 354.455 40.9503C355.329 41.8241 355.925 42.9387 356.167 44.1529C356.409 45.367 356.288 46.6261 355.817 47.7706C355.346 48.9151 354.547 49.8936 353.522 50.582C352.497 51.2705 351.291 51.638 350.058 51.638C349.239 51.6474 348.427 51.4929 347.668 51.1834C346.91 50.8739 346.22 50.4157 345.64 49.8356C345.06 49.2555 344.601 48.5652 344.29 47.8048C343.978 47.0445 343.821 46.2296 343.827 45.4075ZM352.762 45.4075C352.747 44.8738 352.576 44.3563 352.27 43.9195C351.964 43.4829 351.536 43.1466 351.041 42.9525C350.545 42.7584 350.004 42.7153 349.484 42.8285C348.964 42.9418 348.49 43.2063 348.119 43.589C347.748 43.9718 347.498 44.4558 347.399 44.9805C347.301 45.5053 347.359 46.0475 347.566 46.5394C347.773 47.0313 348.12 47.451 348.563 47.7461C349.006 48.0411 349.526 48.1986 350.058 48.1985C350.422 48.2083 350.785 48.1422 351.122 48.0043C351.46 47.8666 351.765 47.66 352.019 47.3978C352.273 47.1355 352.47 46.8234 352.598 46.4808C352.726 46.1383 352.782 45.7728 352.762 45.4075Z" fill="#282938"/>
<path d="M357.934 36.3423C357.934 35.9221 358.058 35.5114 358.29 35.162C358.523 34.8126 358.853 34.5403 359.24 34.3795C359.627 34.2187 360.052 34.1766 360.462 34.2586C360.873 34.3406 361.25 34.5429 361.546 34.84C361.841 35.1372 362.044 35.5157 362.125 35.9278C362.206 36.3399 362.165 36.7671 362.004 37.1553C361.844 37.5436 361.573 37.8753 361.225 38.1087C360.877 38.3422 360.468 38.4669 360.049 38.4669C359.49 38.4612 358.955 38.2356 358.559 37.8384C358.164 37.4412 357.939 36.904 357.934 36.3423ZM358.29 39.5053H361.818V51.3082H358.285L358.29 39.5053Z" fill="#282938"/>
<path d="M377.045 45.4072C377.086 46.1873 376.973 46.9677 376.712 47.7036C376.452 48.4396 376.048 49.1166 375.526 49.6956C375.004 50.2746 374.373 50.7443 373.67 51.0775C372.966 51.4109 372.203 51.6012 371.426 51.6377C370.773 51.6735 370.119 51.5629 369.513 51.3138C368.909 51.0646 368.365 50.6834 367.924 50.1975V56.0287H364.397V39.5058H367.924V40.6145C368.366 40.129 368.909 39.748 369.514 39.4992C370.119 39.2502 370.773 39.1398 371.426 39.1755C372.203 39.2118 372.966 39.4022 373.67 39.7354C374.374 40.0688 375.005 40.5385 375.527 41.1177C376.049 41.6969 376.453 42.3741 376.713 43.1102C376.974 43.8464 377.087 44.627 377.045 45.4072ZM373.518 45.4072C373.505 44.8549 373.329 44.3188 373.013 43.8662C372.698 43.4136 372.256 43.0646 371.744 42.8628C371.231 42.6609 370.671 42.6153 370.133 42.7316C369.595 42.8479 369.103 43.1209 368.718 43.5165C368.335 43.9121 368.075 44.4127 367.972 44.9557C367.871 45.4986 367.93 46.0598 368.144 46.5689C368.358 47.078 368.717 47.5126 369.175 47.8181C369.634 48.1236 370.172 48.2865 370.722 48.2864C371.1 48.3033 371.477 48.2398 371.829 48.1001C372.181 47.9604 372.499 47.7477 372.763 47.4758C373.027 47.2039 373.231 46.8791 373.361 46.5226C373.491 46.1661 373.545 45.7861 373.518 45.4072Z" fill="#282938"/>
<path d="M387.928 47.7666C387.928 50.4812 385.577 51.6377 383.039 51.6377C382.014 51.731 380.984 51.5132 380.082 51.0124C379.181 50.5117 378.45 49.7511 377.984 48.8288L381.039 47.0823C381.163 47.5085 381.429 47.8793 381.792 48.1328C382.155 48.3862 382.593 48.5069 383.035 48.4747C383.88 48.4747 384.304 48.2149 384.304 47.7439C384.304 46.4444 378.52 47.13 378.52 43.0466C378.52 40.4726 380.683 39.1754 383.129 39.1754C384.048 39.1463 384.957 39.3652 385.764 39.8093C386.57 40.2535 387.243 40.9065 387.712 41.7006L384.703 43.3291C384.571 43.0199 384.351 42.7567 384.071 42.572C383.791 42.3874 383.464 42.2895 383.129 42.2907C382.517 42.2907 382.14 42.5291 382.14 42.9512C382.145 44.2972 387.928 43.3995 387.928 47.7666Z" fill="#282938"/>
<path d="M400.812 39.5059V51.3088H397.285V50.1988C396.879 50.6886 396.362 51.0745 395.778 51.3249C395.194 51.5752 394.559 51.6829 393.925 51.639C391.55 51.639 389.531 49.9401 389.531 46.7509V39.5059H393.058V46.2324C393.029 46.5135 393.06 46.7976 393.151 47.0651C393.243 47.3326 393.39 47.577 393.585 47.7812C393.78 47.9855 394.016 48.1447 394.278 48.2478C394.541 48.3509 394.822 48.3955 395.103 48.3783C396.396 48.3783 397.289 47.6237 397.289 45.9475V39.5094L400.812 39.5059Z" fill="#282938"/>
<path d="M421.035 44.0617V51.308H417.508V44.3681C417.508 43.1878 416.943 42.4332 415.815 42.4332C414.64 42.4332 413.98 43.2593 413.98 44.6519V51.308H410.455V44.3681C410.455 43.1878 409.891 42.4332 408.762 42.4332C407.586 42.4332 406.928 43.2593 406.928 44.6519V51.308H403.401V39.5051H406.928V40.59C407.294 40.1086 407.774 39.727 408.324 39.4797C408.875 39.2326 409.478 39.1277 410.079 39.1748C410.682 39.1452 411.283 39.2731 411.822 39.5459C412.362 39.8188 412.822 40.2274 413.158 40.7319C413.549 40.2041 414.066 39.7844 414.663 39.5121C415.259 39.2398 415.914 39.1238 416.567 39.1748C419.266 39.176 421.035 41.111 421.035 44.0617Z" fill="#282938"/>
<path d="M424.018 39.433C425.463 39.433 426.635 38.2566 426.635 36.8054C426.635 35.3542 425.463 34.1777 424.018 34.1777C422.573 34.1777 421.4 35.3542 421.4 36.8054C421.4 38.2566 422.573 39.433 424.018 39.433Z" fill="#282938"/>
</g>
<path d="M518.877 35.8057H521.999V50.9675H518.877V35.8057Z" fill="#282938"/>
<path d="M523.748 45.7742C523.748 44.6833 524.069 43.6171 524.671 42.7105C525.272 41.804 526.128 41.0979 527.128 40.6819C528.128 40.2659 529.228 40.1587 530.289 40.3738C531.35 40.589 532.323 41.1167 533.086 41.8903C533.849 42.6638 534.367 43.6483 534.575 44.7189C534.782 45.7896 534.669 46.8981 534.251 47.9042C533.832 48.9102 533.127 49.7683 532.225 50.3698C531.322 50.9713 530.262 51.2891 529.18 51.2829C528.463 51.2885 527.751 51.1496 527.087 50.8744C526.424 50.5992 525.821 50.1931 525.315 49.6801C524.809 49.167 524.41 48.5572 524.141 47.8865C523.871 47.2158 523.738 46.4976 523.748 45.7742ZM531.574 45.7742C531.562 45.3039 531.412 44.8477 531.144 44.4627C530.876 44.0776 530.501 43.7808 530.067 43.6093C529.632 43.4379 529.157 43.3995 528.701 43.4987C528.245 43.598 527.828 43.8307 527.502 44.1676C527.177 44.5046 526.957 44.9309 526.87 45.3931C526.784 45.8553 526.834 46.3331 527.015 46.7666C527.197 47.2001 527.501 47.57 527.89 47.8302C528.278 48.0905 528.735 48.2293 529.201 48.2295C529.519 48.2357 529.834 48.1758 530.128 48.0536C530.422 47.9312 530.687 47.7492 530.908 47.5188C531.129 47.2884 531.3 47.0145 531.411 46.7143C531.522 46.4141 531.571 46.0941 531.553 45.7742H531.574Z" fill="#282938"/>
<path d="M546.967 40.5807V50.4543C546.967 53.9378 544.261 55.4173 541.523 55.4173C540.558 55.4972 539.589 55.3038 538.727 54.859C537.865 54.414 537.143 53.7353 536.642 52.8991L539.275 51.3672C539.489 51.8009 539.828 52.1587 540.248 52.3931C540.669 52.6274 541.15 52.727 541.627 52.6788C541.932 52.7165 542.241 52.6861 542.532 52.5895C542.824 52.4929 543.09 52.3327 543.313 52.1201C543.536 51.9076 543.709 51.648 543.821 51.36C543.932 51.072 543.98 50.7628 543.959 50.4543V49.4994C543.595 49.9436 543.134 50.2962 542.612 50.5294C542.09 50.7625 541.521 50.8697 540.951 50.8425C539.571 50.8425 538.247 50.2898 537.271 49.3059C536.295 48.322 535.747 46.9876 535.747 45.5962C535.747 44.2048 536.295 42.8704 537.271 41.8865C538.247 40.9026 539.571 40.3498 540.951 40.3498C541.521 40.3227 542.09 40.4299 542.612 40.663C543.134 40.8961 543.595 41.2488 543.959 41.6929V40.6437L546.967 40.5807ZM543.959 45.5647C543.98 45.0627 543.851 44.566 543.589 44.1382C543.328 43.7106 542.945 43.3715 542.491 43.1647C542.037 42.9579 541.532 42.8928 541.041 42.9778C540.549 43.0629 540.095 43.294 539.735 43.6416C539.375 43.9893 539.127 44.4375 539.021 44.9286C538.916 45.4198 538.959 45.9314 539.145 46.3977C539.331 46.864 539.65 47.2636 540.063 47.5452C540.476 47.8268 540.963 47.9776 541.461 47.9781C541.786 48.0016 542.113 47.9562 542.419 47.8447C542.726 47.7332 543.006 47.5581 543.242 47.3307C543.477 47.1032 543.662 46.8286 543.786 46.5244C543.91 46.2202 543.968 45.8933 543.959 45.5647Z" fill="#282938"/>
<path d="M548.726 45.7743C548.726 44.6843 549.047 43.6189 549.647 42.7128C550.248 41.8066 551.102 41.1005 552.101 40.684C553.1 40.2673 554.2 40.1588 555.26 40.3723C556.32 40.5857 557.294 41.1114 558.057 41.8828C558.821 42.6543 559.341 43.6367 559.55 44.706C559.76 45.7753 559.65 46.8832 559.235 47.8896C558.82 48.896 558.118 49.7556 557.218 50.3596C556.318 50.9637 555.261 51.285 554.18 51.2829C553.461 51.2899 552.747 51.1521 552.082 50.8777C551.416 50.6032 550.812 50.1976 550.304 49.6845C549.796 49.1714 549.395 48.5613 549.124 47.8898C548.853 47.2184 548.718 46.4991 548.726 45.7743ZM556.553 45.7743C556.54 45.3035 556.39 44.8469 556.122 44.4617C555.853 44.0765 555.478 43.7796 555.043 43.6085C554.608 43.4374 554.132 43.3995 553.676 43.4996C553.219 43.5998 552.802 43.8335 552.477 44.1715C552.152 44.5094 551.933 44.9367 551.848 45.3996C551.762 45.8625 551.814 46.3407 551.997 46.774C552.18 47.2072 552.485 47.5765 552.876 47.8354C553.266 48.0943 553.723 48.2315 554.19 48.2296C554.508 48.2358 554.823 48.1759 555.117 48.0536C555.411 47.9313 555.676 47.7493 555.897 47.5188C556.118 47.2884 556.289 47.0145 556.4 46.7144C556.511 46.4142 556.559 46.0942 556.542 45.7743H556.553Z" fill="#282938"/>
<path d="M561.08 37.7993C561.08 37.4299 561.189 37.0689 561.392 36.7617C561.596 36.4546 561.885 36.2151 562.224 36.0738C562.562 35.9325 562.935 35.8955 563.294 35.9675C563.653 36.0396 563.984 36.2175 564.243 36.4787C564.502 36.7399 564.678 37.0727 564.75 37.435C564.821 37.7972 564.784 38.1728 564.644 38.514C564.504 38.8554 564.267 39.1471 563.962 39.3523C563.657 39.5575 563.299 39.667 562.933 39.667C562.443 39.6616 561.975 39.4631 561.629 39.1139C561.282 38.7649 561.085 38.293 561.08 37.7993ZM561.382 40.5799H564.504V50.9676H561.382V40.5799Z" fill="#282938"/>
<path d="M577.868 45.7738C577.904 46.4647 577.803 47.1557 577.571 47.807C577.341 48.4584 576.984 49.0574 576.522 49.5693C576.062 50.0813 575.504 50.4963 574.883 50.7903C574.262 51.0843 573.59 51.2515 572.904 51.2825C572.322 51.3215 571.739 51.2276 571.199 51.0078C570.658 50.7879 570.174 50.4479 569.781 50.0129V55.1438H566.659V40.58H569.781V41.5558C570.174 41.1221 570.659 40.7836 571.2 40.5655C571.74 40.3475 572.323 40.2556 572.904 40.2966C573.586 40.3276 574.256 40.4939 574.876 40.786C575.495 41.078 576.05 41.4901 576.511 41.9987C576.972 42.5073 577.33 43.1025 577.562 43.7502C577.795 44.398 577.899 45.0856 577.868 45.7738ZM574.746 45.7738C574.734 45.2865 574.579 44.8136 574.301 44.4146C574.023 44.0155 573.635 43.708 573.185 43.5305C572.734 43.353 572.242 43.3135 571.77 43.4169C571.297 43.5203 570.865 43.762 570.529 44.1117C570.192 44.4615 569.964 44.9036 569.876 45.3828C569.787 45.8621 569.841 46.357 570.03 46.8057C570.219 47.2543 570.535 47.6366 570.94 47.9048C571.343 48.173 571.816 48.3149 572.3 48.313C572.632 48.3272 572.962 48.2706 573.27 48.1471C573.578 48.0235 573.856 47.8356 574.087 47.5958C574.319 47.3561 574.497 47.0698 574.61 46.7558C574.723 46.4419 574.77 46.1072 574.746 45.7738Z" fill="#282938"/>
<path d="M587.37 47.8513C587.37 50.2436 585.289 51.2614 583.082 51.2614C582.183 51.343 581.279 51.1507 580.488 50.7093C579.698 50.2678 579.057 49.5976 578.648 48.7851L581.334 47.2532C581.44 47.6276 581.671 47.9538 581.987 48.1772C582.304 48.4008 582.686 48.5079 583.072 48.4808C583.811 48.4808 584.185 48.25 584.185 47.8302C584.185 46.6866 579.117 47.2952 579.117 43.6962C579.117 41.4298 581.011 40.2965 583.155 40.2965C583.971 40.2598 584.78 40.4461 585.499 40.836C586.216 41.2258 586.817 41.8044 587.235 42.5105L584.55 43.9375C584.431 43.6668 584.237 43.4366 583.992 43.2745C583.746 43.1125 583.459 43.0257 583.166 43.0247C582.625 43.0247 582.301 43.2345 582.301 43.6017C582.301 44.7979 587.37 44.0109 587.37 47.8513Z" fill="#282938"/>
<path d="M598.684 40.5801V50.9679H595.561V49.992C595.206 50.4239 594.756 50.7658 594.246 50.99C593.737 51.2142 593.181 51.3144 592.626 51.2826C590.544 51.2826 588.765 49.7822 588.765 46.9807V40.5801H591.887V46.5084C591.862 46.7563 591.892 47.0066 591.972 47.242C592.054 47.4774 592.184 47.6923 592.355 47.8718C592.526 48.0514 592.734 48.1914 592.964 48.2821C593.194 48.3728 593.441 48.412 593.687 48.3971C594.812 48.3971 595.602 47.7256 595.602 46.2986V40.5801H598.684Z" fill="#282938"/>
<path d="M616.376 44.5883V50.9679H613.253V44.8612C613.253 43.8119 612.764 43.1614 611.775 43.1614C610.786 43.1614 610.162 43.8853 610.162 45.113V50.9679H607.04V44.8612C607.04 43.8119 606.551 43.1614 605.562 43.1614C604.574 43.1614 603.949 43.8853 603.949 45.113V50.9679H600.826V40.5801H603.949V41.535C604.272 41.1131 604.694 40.7791 605.178 40.5629C605.661 40.3468 606.19 40.2553 606.717 40.2968C607.245 40.2691 607.771 40.3802 608.244 40.6193C608.716 40.8585 609.12 41.2174 609.413 41.6609C609.755 41.1976 610.21 40.8295 610.732 40.5909C611.255 40.3524 611.828 40.2512 612.4 40.2968C614.836 40.2968 616.376 41.9967 616.376 44.5883Z" fill="#282938"/>
<path d="M500.277 33.0775V28.6182H486.331V59.2568H500.277V54.7974C497.421 54.7974 494.681 53.6532 492.66 51.6166C490.64 49.58 489.505 46.8177 489.505 43.9375C489.505 41.0572 490.64 38.295 492.66 36.2584C494.681 34.2217 497.421 33.0775 500.277 33.0775Z" fill="#282938"/>
<path d="M500.278 33.0781V54.7979C503.135 54.7979 505.875 53.6538 507.895 51.6171C509.916 49.5805 511.05 46.8183 511.05 43.938C511.05 41.0578 509.916 38.2955 507.895 36.2589C505.875 34.2223 503.135 33.0781 500.278 33.0781Z" fill="#282938"/>
<path d="M618.999 40.5172C620.264 40.5172 621.289 39.4836 621.289 38.2088C621.289 36.9339 620.264 35.9004 618.999 35.9004C617.734 35.9004 616.709 36.9339 616.709 38.2088C616.709 39.4836 617.734 40.5172 618.999 40.5172Z" fill="#282938"/>
<g clip-path="url(#clip1_904_1037)">
<path d="M750.134 37.3468H753.516V51.0049H750.134V37.3468ZM754.858 45.8479C754.858 42.47 756.933 40.4545 760.135 40.4545C763.337 40.4545 765.412 42.47 765.412 45.8479C765.412 49.2259 763.382 51.2527 760.135 51.2527C756.888 51.2527 754.858 49.2822 754.858 45.8479ZM762.018 45.8479C762.018 43.9901 761.285 42.8979 760.135 42.8979C758.985 42.8979 758.263 44.0239 758.263 45.8479C758.263 47.672 758.973 48.7755 760.135 48.7755C761.296 48.7755 762.018 47.7396 762.018 45.8592V45.8479ZM766.686 51.6693H769.933C770.087 52.0121 770.349 52.296 770.678 52.4786C771.007 52.6612 771.386 52.7328 771.759 52.6826C773.045 52.6826 773.721 51.9846 773.721 50.9712V49.0795H773.654C773.384 49.6593 772.947 50.1451 772.398 50.4743C771.849 50.8034 771.215 50.9608 770.576 50.9262C768.106 50.9262 766.471 49.0457 766.471 45.8142C766.471 42.5826 768.027 40.5446 770.621 40.5446C771.28 40.5188 771.931 40.6948 772.487 41.0489C773.043 41.4032 773.478 41.9186 773.733 42.5263V40.6459H777.115V50.8923C777.115 53.3583 774.939 54.8896 771.726 54.8896C768.738 54.8896 766.877 53.5496 766.686 51.6806V51.6693ZM773.733 45.8367C773.733 44.1928 772.977 43.1568 771.782 43.1568C770.587 43.1568 769.854 44.1815 769.854 45.8367C769.854 47.4919 770.576 48.4264 771.782 48.4264C772.988 48.4264 773.733 47.5144 773.733 45.8479V45.8367ZM778.389 45.8367C778.389 42.4587 780.464 40.4432 783.666 40.4432C786.868 40.4432 788.954 42.4587 788.954 45.8367C788.954 49.2146 786.924 51.2414 783.666 51.2414C780.407 51.2414 778.389 49.2822 778.389 45.8479V45.8367ZM785.549 45.8367C785.549 43.9788 784.816 42.8866 783.666 42.8866C782.516 42.8866 781.851 44.0239 781.851 45.8592C781.851 47.6945 782.561 48.7868 783.711 48.7868C784.861 48.7868 785.549 47.7396 785.549 45.8592V45.8367ZM790.239 38.1912C790.23 37.8503 790.323 37.5143 790.506 37.2259C790.688 36.9376 790.953 36.7098 791.265 36.5716C791.577 36.4333 791.924 36.3908 792.26 36.4494C792.597 36.5081 792.908 36.6651 793.155 36.9008C793.402 37.1364 793.574 37.44 793.648 37.7731C793.722 38.1061 793.695 38.4536 793.571 38.7716C793.447 39.0895 793.232 39.3635 792.952 39.5589C792.672 39.7543 792.34 39.8622 791.998 39.869C791.772 39.8845 791.545 39.8531 791.331 39.7768C791.117 39.7005 790.922 39.5808 790.756 39.4254C790.591 39.2699 790.46 39.0821 790.371 38.8736C790.282 38.665 790.237 38.4404 790.239 38.2138V38.1912ZM790.239 40.6684H793.622V51.0049H790.239V40.6684ZM805.901 45.8367C805.901 49.2146 804.401 51.14 801.831 51.14C801.171 51.1824 800.515 51.0214 799.95 50.6791C799.385 50.3368 798.94 49.8295 798.673 49.2259H798.605V54.3153H795.223V40.6459H798.605V42.4925H798.673C798.927 41.879 799.364 41.3585 799.926 41.0019C800.486 40.6454 801.144 40.4699 801.807 40.4995C804.401 40.5446 805.945 42.4813 805.945 45.8592L805.901 45.8367ZM802.518 45.8367C802.518 44.1928 801.762 43.1456 800.579 43.1456C799.395 43.1456 798.639 44.204 798.628 45.8367C798.617 47.4694 799.395 48.5166 800.579 48.5166C801.762 48.5166 802.518 47.4919 802.518 45.8592V45.8367ZM811.707 40.432C814.514 40.432 816.217 41.7607 816.296 43.8888H813.218C813.218 43.1568 812.609 42.6952 811.674 42.6952C810.737 42.6952 810.32 43.0555 810.32 43.5848C810.32 44.1139 810.693 44.2828 811.448 44.4405L813.612 44.8796C815.676 45.3187 816.555 46.152 816.555 47.7171C816.555 49.8565 814.605 51.2302 811.73 51.2302C808.854 51.2302 806.972 49.8565 806.825 47.7509H810.083C810.185 48.5166 810.794 48.9669 811.786 48.9669C812.778 48.9669 813.229 48.6404 813.229 48.1C813.229 47.5594 812.914 47.4469 812.102 47.2779L810.152 46.8614C808.133 46.4448 807.073 45.3751 807.073 43.7987C807.096 41.7719 808.911 40.4545 811.707 40.4545V40.432ZM827.842 50.9824H824.583V49.057H824.515C824.337 49.7034 823.941 50.2693 823.396 50.6605C822.85 51.0517 822.187 51.2448 821.517 51.2076C821.002 51.2368 820.489 51.1555 820.009 50.9692C819.529 50.7828 819.095 50.4959 818.736 50.1276C818.377 49.7593 818.101 49.3184 817.927 48.8345C817.753 48.3507 817.685 47.8352 817.728 47.323V40.6459H821.111V46.5461C821.111 47.7734 821.742 48.4264 822.791 48.4264C823.037 48.427 823.279 48.375 823.503 48.2739C823.728 48.1729 823.928 48.0253 824.09 47.8408C824.252 47.6563 824.373 47.4393 824.444 47.2044C824.516 46.9695 824.537 46.7219 824.505 46.4785V40.6459H827.887L827.842 50.9824ZM829.477 40.6459H832.747V42.6389H832.814C832.994 42.001 833.38 41.4406 833.912 41.0453C834.445 40.65 835.093 40.4423 835.757 40.4545C836.432 40.4006 837.102 40.6023 837.635 41.0195C838.168 41.4368 838.524 42.0391 838.632 42.7064H838.7C838.904 42.032 839.328 41.4446 839.904 41.0368C840.479 40.6291 841.174 40.4242 841.88 40.4545C842.339 40.4391 842.798 40.5205 843.224 40.6934C843.651 40.8663 844.035 41.1269 844.354 41.4582C844.673 41.7896 844.919 42.1842 845.076 42.6165C845.232 43.0488 845.295 43.5091 845.261 43.9676V51.0049H841.88V44.8683C841.88 43.7424 841.372 43.2244 840.425 43.2244C840.214 43.2226 840.004 43.2661 839.811 43.3519C839.618 43.4377 839.446 43.5638 839.307 43.7217C839.166 43.8797 839.062 44.0658 839 44.2675C838.938 44.4691 838.92 44.6817 838.948 44.8909V51.0049H835.735V44.8233C835.735 43.7874 835.227 43.2244 834.302 43.2244C834.089 43.2245 833.878 43.2698 833.683 43.3573C833.489 43.4448 833.314 43.5727 833.172 43.7322C833.031 43.8919 832.924 44.0796 832.86 44.2832C832.797 44.4868 832.778 44.7016 832.803 44.9134V51.0049H829.42L829.477 40.6459Z" fill="#282938"/>
<path d="M740.674 37.9662C740.1 36.656 739.341 35.435 738.419 34.3406C737.056 32.6746 735.356 31.3155 733.429 30.3531C731.503 29.3906 729.394 28.8465 727.242 28.7565C725.09 28.6665 722.943 29.0327 720.943 29.8311C718.942 30.6294 717.134 31.8417 715.637 33.3882C714.139 34.9347 712.987 36.7803 712.255 38.8037C711.524 40.827 711.23 42.9821 711.392 45.1271C711.555 47.2721 712.17 49.3585 713.198 51.2488C714.226 53.1392 715.644 54.7907 717.357 56.0946C718.456 56.9479 719.671 57.6417 720.965 58.1551C722.779 58.8976 724.721 59.28 726.682 59.2811C730.729 59.2722 734.607 57.6612 737.467 54.8012C740.326 51.9413 741.934 48.0657 741.937 44.024C741.94 41.9393 741.51 39.8766 740.674 37.9662ZM726.67 31.8522C728.431 31.852 730.17 32.2363 731.767 32.9782C731.377 33.1461 730.968 33.2635 730.549 33.3272C729.17 33.5266 727.892 34.1662 726.906 35.1504C725.921 36.1346 725.28 37.4107 725.08 38.7883C724.993 39.5608 724.641 40.2795 724.084 40.8231C723.528 41.3667 722.8 41.7019 722.025 41.7721C720.646 41.9715 719.368 42.611 718.382 43.5952C717.397 44.5795 716.756 45.8556 716.556 47.2331C716.489 47.9677 716.175 48.658 715.666 49.1923C714.787 47.3382 714.392 45.2921 714.518 43.2446C714.644 41.1971 715.287 39.2147 716.386 37.4818C717.486 35.749 719.006 34.3221 720.806 33.3338C722.606 32.3456 724.627 31.8281 726.682 31.8297L726.67 31.8522ZM717.346 51.906C717.481 51.7821 717.616 51.6694 717.752 51.5343C718.755 50.5631 719.399 49.2811 719.578 47.8974C719.651 47.1197 719.999 46.3932 720.559 45.8481C721.098 45.2876 721.824 44.9432 722.6 44.8798C723.979 44.6804 725.257 44.0408 726.243 43.0566C727.228 42.0725 727.869 40.7963 728.068 39.4188C728.117 38.6053 728.467 37.8389 729.049 37.2682C729.602 36.7185 730.335 36.3866 731.113 36.3336C732.38 36.1595 733.562 35.5969 734.495 34.7235C735.558 35.6041 736.459 36.6634 737.156 37.8537C737.113 37.9115 737.064 37.9644 737.01 38.0113C736.471 38.5768 735.747 38.9287 734.969 39.0022C733.588 39.1981 732.308 39.8366 731.322 40.8214C730.336 41.8062 729.696 43.0843 729.5 44.4632C729.421 45.2383 729.075 45.9622 728.523 46.5122C727.97 47.0622 727.244 47.4044 726.467 47.4808C725.084 47.6787 723.801 48.317 722.81 49.3008C721.819 50.2846 721.172 51.5615 720.965 52.9418C720.904 53.4921 720.715 54.0206 720.413 54.4845C719.256 53.7985 718.22 52.9274 717.346 51.906ZM726.67 56.2522C725.526 56.2534 724.388 56.0942 723.288 55.7793C723.664 55.079 723.908 54.3157 724.009 53.5273C724.088 52.7539 724.432 52.0314 724.983 51.4816C725.533 50.9319 726.257 50.5886 727.031 50.5097C728.412 50.3126 729.693 49.674 730.681 48.6896C731.668 47.7052 732.311 46.4278 732.511 45.0487C732.59 44.2753 732.934 43.5527 733.484 43.003C734.035 42.4533 734.758 42.11 735.533 42.031C736.572 41.896 737.563 41.5095 738.419 40.9051C738.894 42.7043 738.951 44.5884 738.584 46.4126C738.217 48.237 737.436 49.9531 736.302 51.4294C735.167 52.9056 733.709 54.1029 732.04 54.9291C730.37 55.7553 728.534 56.1887 726.67 56.1959V56.2522Z" fill="#282938"/>
</g>
<g clip-path="url(#clip2_904_1037)">
<path d="M980.335 53.4924C979.56 53.5342 978.794 53.3151 978.16 52.8707C977.895 52.6754 977.682 52.4189 977.539 52.1233C977.396 51.8276 977.327 51.5019 977.34 51.1741V39.1682C977.333 39.1173 977.339 39.0657 977.355 39.0173C977.372 38.9689 977.4 38.9249 977.436 38.8887C977.473 38.8525 977.517 38.825 977.565 38.8083C977.614 38.7917 977.666 38.7863 977.717 38.7926H979.905C980.153 38.7926 980.27 38.9221 980.27 39.1682V50.2416C980.27 50.7338 980.491 50.9798 980.947 50.9798C981.14 50.9878 981.334 50.9659 981.52 50.9151C981.781 50.9151 981.924 50.9928 981.937 51.2259L982.132 52.8448C982.142 52.892 982.141 52.9407 982.13 52.9875C982.118 53.0344 982.097 53.0782 982.068 53.1163C982.038 53.1543 982.001 53.1857 981.958 53.2081C981.915 53.2305 981.868 53.2436 981.82 53.2464C981.34 53.4038 980.84 53.4868 980.335 53.4924Z" fill="#282938"/>
<path d="M992.643 52.1072C991.543 53.0105 990.162 53.5046 988.736 53.5046C987.31 53.5046 985.928 53.0105 984.829 52.1072C983.862 51.1371 983.32 49.8268 983.32 48.4613C983.32 47.0959 983.862 45.7856 984.829 44.8155C985.93 43.9169 987.311 43.4258 988.736 43.4258C990.161 43.4258 991.541 43.9169 992.643 44.8155C993.587 45.7946 994.114 47.0985 994.114 48.4549C994.114 49.8113 993.587 51.1152 992.643 52.0943V52.1072ZM986.887 50.3975C987.397 50.8572 988.06 51.1118 988.749 51.1118C989.437 51.1118 990.101 50.8572 990.611 50.3975C991.073 49.8697 991.327 49.1934 991.327 48.4938C991.327 47.794 991.073 47.1179 990.611 46.5899C990.101 46.1303 989.437 45.8757 988.749 45.8757C988.06 45.8757 987.397 46.1303 986.887 46.5899C986.425 47.1179 986.17 47.794 986.17 48.4938C986.17 49.1934 986.425 49.8697 986.887 50.3975Z" fill="#282938"/>
<path d="M1006.16 43.7522C1006.41 43.7522 1006.53 43.8818 1006.53 44.1279V53.4139C1006.55 54.0407 1006.43 54.6646 1006.18 55.2404C1005.93 55.8162 1005.55 56.3292 1005.08 56.7425C1004.03 57.6355 1002.67 58.0982 1001.29 58.0376C1000.04 58.0813 998.81 57.7422 997.761 57.0663C997.313 56.7738 996.931 56.393 996.637 55.9474C996.344 55.5019 996.146 55.001 996.055 54.476C996.055 54.2169 996.055 54.1004 996.407 54.1004H998.595C998.688 54.1036 998.778 54.1333 998.854 54.1862C998.93 54.239 998.989 54.3127 999.024 54.3983C999.166 54.7917 999.449 55.1191 999.819 55.3178C1000.27 55.549 1000.77 55.6647 1001.28 55.6546C1001.58 55.6713 1001.89 55.6271 1002.18 55.5248C1002.47 55.4225 1002.73 55.2642 1002.96 55.0588C1003.16 54.844 1003.33 54.5899 1003.43 54.3116C1003.54 54.0334 1003.58 53.7368 1003.57 53.4399V52.624C1002.79 53.197 1001.83 53.4932 1000.86 53.4658C1000.18 53.4904 999.502 53.378 998.866 53.1354C998.231 52.8929 997.651 52.5251 997.162 52.054C996.223 51.0881 995.698 49.7971 995.698 48.4536C995.698 47.11 996.223 45.8191 997.162 44.8531C997.654 44.3863 998.234 44.022 998.869 43.7818C999.504 43.5416 1000.18 43.4303 1000.86 43.4544C1001.86 43.4281 1002.84 43.7435 1003.63 44.348V44.1408C1003.63 44.0912 1003.63 44.0408 1003.65 43.9935C1003.67 43.9461 1003.69 43.9028 1003.73 43.8669C1003.76 43.8309 1003.8 43.8031 1003.85 43.7856C1003.9 43.7679 1003.95 43.761 1004 43.7652L1006.16 43.7522ZM1001.11 51.1604C1001.44 51.1707 1001.78 51.1077 1002.09 50.9756C1002.39 50.8436 1002.67 50.6458 1002.89 50.3963C1003.33 49.8403 1003.56 49.1569 1003.56 48.4536C1003.56 47.7504 1003.33 47.067 1002.89 46.5109C1002.67 46.2647 1002.4 46.0699 1002.09 45.9402C1001.78 45.8104 1001.45 45.7488 1001.12 45.7597C1000.78 45.7491 1000.44 45.812 1000.13 45.9439C999.819 46.0758 999.539 46.2737 999.311 46.5238C998.831 47.0557 998.579 47.7526 998.608 48.4665C998.584 49.1734 998.831 49.863 999.298 50.3963C999.527 50.6457 999.807 50.8432 1000.12 50.9751C1000.43 51.1069 1000.77 51.1702 1001.11 51.1604Z" fill="#282938"/>
<path d="M1017.77 52.1064C1016.66 53.005 1015.28 53.4961 1013.86 53.4961C1012.43 53.4961 1011.05 53.005 1009.95 52.1064C1009.01 51.1251 1008.48 49.8191 1008.48 48.4606C1008.48 47.102 1009.01 45.7959 1009.95 44.8147C1011.05 43.9184 1012.43 43.4287 1013.86 43.4287C1015.28 43.4287 1016.66 43.9184 1017.77 44.8147C1018.71 45.7937 1019.24 47.0977 1019.24 48.4541C1019.24 49.8104 1018.71 51.1144 1017.77 52.0934V52.1064ZM1012 50.3968C1012.25 50.6329 1012.54 50.8175 1012.86 50.9398C1013.18 51.0621 1013.53 51.1197 1013.87 51.1091C1014.21 51.1179 1014.55 51.0596 1014.87 50.9374C1015.19 50.815 1015.49 50.6314 1015.73 50.3968C1016.19 49.8653 1016.44 49.1905 1016.44 48.4929C1016.44 47.7954 1016.19 47.1206 1015.73 46.5891C1015.49 46.3544 1015.19 46.1708 1014.87 46.0485C1014.55 45.9263 1014.21 45.8679 1013.87 45.8767C1013.53 45.8662 1013.18 45.9238 1012.86 46.046C1012.54 46.1683 1012.25 46.3529 1012 46.5891C1011.54 47.1206 1011.29 47.7954 1011.29 48.4929C1011.29 49.1905 1011.54 49.8653 1012 50.3968Z" fill="#282938"/>
<path d="M1023.94 41.5513C1023.59 41.851 1023.15 42.0161 1022.7 42.0161C1022.24 42.0161 1021.8 41.851 1021.45 41.5513C1021.3 41.4048 1021.17 41.2281 1021.09 41.0322C1021 40.8362 1020.96 40.625 1020.96 40.4116C1020.96 40.1981 1021 39.9869 1021.09 39.791C1021.17 39.595 1021.3 39.4184 1021.45 39.2719C1021.8 38.9796 1022.24 38.8193 1022.7 38.8193C1023.15 38.8193 1023.59 38.9796 1023.94 39.2719C1024.09 39.4184 1024.22 39.595 1024.3 39.791C1024.39 39.9869 1024.43 40.1981 1024.43 40.4116C1024.43 40.625 1024.39 40.8362 1024.3 41.0322C1024.22 41.2281 1024.09 41.4048 1023.94 41.5513ZM1024.21 53.4925C1023.44 53.5303 1022.67 53.3116 1022.04 52.8707C1021.78 52.6725 1021.57 52.4151 1021.43 52.12C1021.29 51.8249 1021.22 51.5005 1021.23 51.1741V44.1287C1021.22 44.0778 1021.23 44.0261 1021.25 43.9777C1021.26 43.9293 1021.29 43.8853 1021.33 43.8491C1021.36 43.8129 1021.41 43.7854 1021.46 43.7687C1021.5 43.7521 1021.56 43.7467 1021.61 43.753H1023.8C1024.04 43.753 1024.16 43.8826 1024.16 44.1287V50.2417C1024.16 50.7338 1024.38 50.9799 1024.82 50.9799C1025.02 50.987 1025.22 50.9651 1025.41 50.9151C1025.67 50.9151 1025.81 50.9929 1025.83 51.2259L1026.02 52.8449C1026.03 52.8921 1026.03 52.9407 1026.02 52.9876C1026.01 53.0344 1025.99 53.0783 1025.96 53.1163C1025.93 53.1544 1025.89 53.1857 1025.85 53.2081C1025.81 53.2306 1025.76 53.2436 1025.71 53.2464C1025.23 53.4047 1024.72 53.4877 1024.21 53.4925Z" fill="#282938"/>
<path d="M1034.07 43.4419C1034.76 43.4151 1035.44 43.5251 1036.08 43.7653C1036.72 44.0056 1037.3 44.3714 1037.8 44.8407C1038.72 45.8237 1039.23 47.1172 1039.23 48.4607C1039.23 49.804 1038.72 51.0977 1037.8 52.0806C1037.3 52.5541 1036.72 52.9233 1036.08 53.166C1035.44 53.4086 1034.76 53.5197 1034.07 53.4922C1033.1 53.5138 1032.14 53.2182 1031.35 52.6504V57.3258C1031.35 57.5719 1031.22 57.6885 1030.97 57.6885H1028.78C1028.73 57.6977 1028.68 57.6948 1028.63 57.6799C1028.59 57.6649 1028.54 57.6385 1028.51 57.6028C1028.47 57.567 1028.44 57.5232 1028.43 57.4749C1028.41 57.4267 1028.41 57.3755 1028.42 57.3258V46.7057C1028.44 46.6019 1028.43 46.4959 1028.39 46.3962C1028.36 46.2965 1028.3 46.2059 1028.23 46.1317C1028.15 46.0575 1028.06 46.0016 1027.96 45.9686C1027.86 45.9356 1027.76 45.9264 1027.65 45.9415H1027.22C1026.94 45.9415 1026.79 45.838 1026.79 45.6307V44.1025C1026.79 44.0079 1026.81 43.9139 1026.87 43.8362C1026.92 43.7583 1027 43.7015 1027.09 43.6751C1027.54 43.5122 1028.02 43.4333 1028.5 43.4419C1028.98 43.3999 1029.46 43.5007 1029.88 43.7314C1030.3 43.9622 1030.64 44.3123 1030.86 44.7371C1031.27 44.3151 1031.78 43.9826 1032.33 43.76C1032.88 43.5372 1033.48 43.429 1034.07 43.4419ZM1032.04 50.3969C1032.27 50.6382 1032.55 50.8303 1032.86 50.9615C1033.17 51.0927 1033.5 51.1603 1033.84 51.1603C1034.17 51.1603 1034.51 51.0927 1034.82 50.9615C1035.12 50.8303 1035.4 50.6382 1035.64 50.3969C1036.12 49.8543 1036.38 49.1434 1036.35 48.4154C1036.39 47.6866 1036.13 46.9741 1035.64 46.4337C1035.4 46.1924 1035.12 46.0003 1034.82 45.8691C1034.51 45.7379 1034.17 45.6703 1033.84 45.6703C1033.5 45.6703 1033.17 45.7379 1032.86 45.8691C1032.55 46.0003 1032.27 46.1924 1032.04 46.4337C1031.57 46.9836 1031.32 47.6917 1031.35 48.4154C1031.32 49.1383 1031.57 49.845 1032.04 50.3969Z" fill="#282938"/>
<path d="M1045.38 53.4916C1044.21 53.5394 1043.05 53.2613 1042.03 52.6886C1041.62 52.4439 1041.27 52.1106 1041.01 51.7137C1040.75 51.3169 1040.58 50.8667 1040.52 50.3963C1040.52 50.1372 1040.61 50.0077 1040.9 50.0077H1042.81C1042.9 50.0112 1042.99 50.0397 1043.07 50.09C1043.14 50.1403 1043.2 50.2104 1043.24 50.2926C1043.51 50.992 1044.23 51.3417 1045.38 51.3417C1045.78 51.3599 1046.17 51.2798 1046.54 51.1085C1046.66 51.0526 1046.77 50.964 1046.84 50.8522C1046.92 50.7404 1046.97 50.6097 1046.98 50.474C1046.98 50.1372 1046.77 49.9041 1046.35 49.7486C1045.86 49.585 1045.35 49.4764 1044.83 49.4249C1044.21 49.3558 1043.61 49.2476 1043.01 49.1011C1042.42 48.9697 1041.89 48.6674 1041.48 48.2334C1041.24 47.9383 1041.06 47.5971 1040.96 47.2309C1040.86 46.8647 1040.83 46.4814 1040.88 46.1049C1040.94 45.7283 1041.07 45.3665 1041.27 45.0419C1041.46 44.7174 1041.73 44.4371 1042.04 44.2184C1042.98 43.6237 1044.08 43.3341 1045.19 43.3895C1046.27 43.3534 1047.33 43.6181 1048.27 44.1537C1048.64 44.3653 1048.97 44.6577 1049.21 45.0094C1049.46 45.3612 1049.63 45.7635 1049.7 46.187C1049.7 46.446 1049.58 46.5756 1049.35 46.5756H1047.42C1047.34 46.5803 1047.26 46.5607 1047.19 46.5191C1047.12 46.4775 1047.06 46.4159 1047.03 46.3425C1046.9 46.0357 1046.66 45.7899 1046.35 45.656C1046.01 45.4764 1045.62 45.3873 1045.23 45.397C1044.85 45.3764 1044.47 45.4521 1044.12 45.6172C1044 45.6638 1043.9 45.7453 1043.83 45.8515C1043.75 45.9578 1043.71 46.0836 1043.71 46.2129C1043.72 46.3901 1043.78 46.5599 1043.89 46.6974C1044.01 46.8349 1044.16 46.9329 1044.33 46.9771C1044.83 47.1645 1045.35 47.2949 1045.88 47.3657C1046.49 47.4454 1047.1 47.5578 1047.69 47.7024C1048.28 47.8337 1048.81 48.1359 1049.22 48.5701C1049.44 48.8093 1049.61 49.0892 1049.72 49.3937C1049.82 49.6983 1049.87 50.0215 1049.86 50.3445C1049.87 50.7921 1049.76 51.2351 1049.55 51.63C1049.34 52.0251 1049.03 52.3585 1048.64 52.598C1047.67 53.2192 1046.53 53.5309 1045.38 53.4916Z" fill="#282938"/>
<path d="M1063.62 52.8449C1063.63 52.8908 1063.63 52.9379 1063.62 52.9831C1063.61 53.0283 1063.58 53.0708 1063.56 53.1083C1063.53 53.1457 1063.49 53.1771 1063.45 53.2009C1063.41 53.2245 1063.37 53.24 1063.32 53.2463C1062.85 53.4007 1062.35 53.4836 1061.85 53.4924C1061.36 53.5434 1060.86 53.4665 1060.4 53.269C1059.94 53.0716 1059.55 52.7605 1059.25 52.3657C1058.33 53.1522 1057.14 53.5558 1055.93 53.4924C1055.36 53.5182 1054.8 53.4266 1054.28 53.2237C1053.75 53.0206 1053.27 52.7108 1052.88 52.3139C1052.48 51.8979 1052.18 51.4071 1051.98 50.8708C1051.78 50.3344 1051.69 49.7636 1051.72 49.1925V44.1286C1051.72 43.8825 1051.84 43.7529 1052.08 43.7529H1054.27C1054.52 43.7529 1054.64 43.8825 1054.64 44.1286V48.804C1054.61 49.3865 1054.81 49.9562 1055.2 50.3971C1055.39 50.599 1055.62 50.7578 1055.88 50.8628C1056.14 50.9678 1056.41 51.0165 1056.69 51.0058C1056.98 51.0182 1057.26 50.9742 1057.53 50.8764C1057.8 50.7786 1058.05 50.6289 1058.26 50.4359C1058.45 50.2325 1058.61 49.9908 1058.71 49.7257C1058.81 49.4606 1058.86 49.1778 1058.84 48.8947V44.1286C1058.84 43.8825 1058.96 43.7529 1059.21 43.7529H1061.42C1061.67 43.7529 1061.79 43.8825 1061.79 44.1286V50.2287C1061.79 50.7338 1062.01 50.9799 1062.44 50.9799C1062.64 50.9876 1062.84 50.9658 1063.04 50.915C1063.09 50.9013 1063.14 50.8989 1063.19 50.9079C1063.24 50.9169 1063.29 50.937 1063.33 50.967C1063.37 50.9969 1063.4 51.0357 1063.43 51.0806C1063.45 51.1254 1063.46 51.1751 1063.47 51.226L1063.62 52.8449Z" fill="#282938"/>
<path d="M1084.32 52.8452C1084.33 52.8915 1084.33 52.9399 1084.32 52.9868C1084.31 53.0336 1084.29 53.0778 1084.26 53.1162C1084.23 53.1546 1084.2 53.1862 1084.15 53.2087C1084.11 53.2313 1084.06 53.2442 1084.02 53.2467C1083.53 53.4032 1083.03 53.4862 1082.52 53.4927C1081.75 53.5324 1080.98 53.3137 1080.34 52.8711C1080.07 52.6814 1079.85 52.4274 1079.69 52.1314C1079.54 51.8355 1079.47 51.5068 1079.47 51.1744V48.1308C1079.5 47.5501 1079.3 46.9807 1078.92 46.5378C1078.74 46.3354 1078.52 46.1758 1078.26 46.0705C1078.01 45.9653 1077.74 45.917 1077.47 45.9291C1077.22 45.9198 1076.97 45.9664 1076.75 46.0651C1076.52 46.1638 1076.32 46.3122 1076.16 46.499C1075.82 46.933 1075.64 47.4753 1075.67 48.0273V52.8063C1075.67 53.0524 1075.55 53.1819 1075.3 53.1819H1073.1C1073.05 53.1882 1073 53.1828 1072.95 53.1662C1072.9 53.1496 1072.86 53.122 1072.82 53.0859C1072.79 53.0496 1072.76 53.0056 1072.74 52.9571C1072.72 52.9087 1072.72 52.8571 1072.73 52.8063V48.1308C1072.75 47.5565 1072.57 46.991 1072.22 46.5378C1072.06 46.3475 1071.86 46.1942 1071.63 46.089C1071.41 45.9838 1071.16 45.9292 1070.92 45.9291C1070.65 45.9185 1070.38 45.9637 1070.14 46.0619C1069.89 46.1601 1069.67 46.3091 1069.48 46.499C1069.11 46.9192 1068.92 47.4679 1068.95 48.0273V52.8063C1068.95 52.8571 1068.95 52.9087 1068.93 52.9571C1068.92 53.0056 1068.89 53.0496 1068.85 53.0859C1068.82 53.122 1068.77 53.1496 1068.72 53.1662C1068.67 53.1828 1068.62 53.1882 1068.57 53.1819H1066.45C1066.2 53.1819 1066.08 53.0524 1066.08 52.8063V46.7062C1066.1 46.6024 1066.09 46.4964 1066.06 46.3966C1066.02 46.297 1065.97 46.2064 1065.89 46.1322C1065.82 46.058 1065.73 46.0021 1065.63 45.9691C1065.53 45.936 1065.42 45.9269 1065.32 45.9421H1064.89C1064.6 45.9421 1064.46 45.8385 1064.46 45.6312V44.103C1064.45 44.0084 1064.47 43.9144 1064.53 43.8366C1064.58 43.7589 1064.66 43.702 1064.76 43.6756C1065.21 43.5127 1065.68 43.4337 1066.16 43.4424C1066.62 43.4035 1067.08 43.4946 1067.49 43.7055C1067.9 43.9163 1068.25 44.2382 1068.48 44.634C1068.92 44.2198 1069.44 43.9003 1070.01 43.6953C1070.58 43.4903 1071.18 43.4042 1071.79 43.4424C1072.37 43.414 1072.96 43.5234 1073.5 43.762C1074.03 44.0005 1074.51 44.3613 1074.87 44.8153C1075.31 44.3495 1075.84 43.9847 1076.43 43.7472C1077.02 43.5098 1077.65 43.4057 1078.29 43.4424C1078.86 43.416 1079.42 43.5071 1079.95 43.71C1080.49 43.9128 1080.97 44.223 1081.37 44.621C1081.77 45.0361 1082.08 45.5268 1082.27 46.0633C1082.47 46.5999 1082.56 47.1711 1082.53 47.7423V50.2419C1082.53 50.7341 1082.75 50.9802 1083.17 50.9802C1083.37 50.9896 1083.57 50.9677 1083.77 50.9154C1084.04 50.9154 1084.18 51.019 1084.2 51.2263L1084.32 52.8452Z" fill="#282938"/>
<path d="M931.601 42.0697C932.562 38.2293 934.787 34.8188 937.923 32.3815C941.058 29.9442 944.924 28.6201 948.903 28.6201C952.883 28.6201 956.748 29.9442 959.884 32.3815C963.019 34.8188 965.244 38.2293 966.205 42.0697H964.642C962.006 42.0311 959.424 42.8147 957.258 44.3104C957.133 44.4004 957.002 44.4825 956.867 44.5564H956.685C956.55 44.4825 956.419 44.4004 956.294 44.3104C954.109 42.8493 951.536 42.069 948.903 42.069C946.27 42.069 943.697 42.8493 941.512 44.3104C941.387 44.4004 941.257 44.4825 941.122 44.5564H940.939C940.804 44.4825 940.674 44.4004 940.549 44.3104C938.383 42.8147 935.801 42.0311 933.164 42.0697H931.601ZM961.829 50.1903C962.631 49.569 963.626 49.2439 964.642 49.2708H966.739V45.1133H964.642C962.852 45.0918 961.102 45.646 959.654 46.6934C958.839 47.2909 957.854 47.6132 956.841 47.6132C955.829 47.6132 954.843 47.2909 954.028 46.6934C952.543 45.6656 950.777 45.1146 948.968 45.1146C947.159 45.1146 945.394 45.6656 943.909 46.6934C943.094 47.2909 942.108 47.6132 941.096 47.6132C940.083 47.6132 939.097 47.2909 938.282 46.6934C936.817 45.6326 935.042 45.0777 933.229 45.1133H931.067V49.2708H933.164C934.181 49.2439 935.175 49.569 935.977 50.1903C937.459 51.2188 939.223 51.7703 941.03 51.7703C942.838 51.7703 944.602 51.2188 946.084 50.1903C946.887 49.5708 947.881 49.2461 948.897 49.2708C949.914 49.2418 950.909 49.567 951.71 50.1903C953.195 51.2181 954.96 51.7691 956.77 51.7691C958.579 51.7691 960.344 51.2181 961.829 50.1903ZM961.829 57.6244C962.631 57.0031 963.626 56.678 964.642 56.7049H966.739V52.5475H964.642C962.852 52.5259 961.102 53.0801 959.654 54.1275C958.839 54.725 957.854 55.0473 956.841 55.0473C955.829 55.0473 954.843 54.725 954.028 54.1275C952.543 53.0996 950.777 52.5487 948.968 52.5487C947.159 52.5487 945.394 53.0996 943.909 54.1275C943.094 54.725 942.108 55.0473 941.096 55.0473C940.083 55.0473 939.097 54.725 938.282 54.1275C936.817 53.0667 935.042 52.5118 933.229 52.5475H931.067V56.7049H933.164C934.181 56.678 935.175 57.0031 935.977 57.6244C937.459 58.653 939.223 59.2044 941.03 59.2044C942.838 59.2044 944.602 58.653 946.084 57.6244C946.887 57.005 947.881 56.6802 948.897 56.7049C949.914 56.6759 950.909 57.0011 951.71 57.6244C953.195 58.6522 954.96 59.2033 956.77 59.2033C958.579 59.2033 960.344 58.6522 961.829 57.6244Z" fill="#282938"/>
</g>
<path d="M1182.74 37.8996H1186.17V51.7669H1182.74V37.8996ZM1187.54 46.5507C1187.54 43.1158 1189.67 41.057 1192.88 41.057C1196.08 41.057 1198.22 43.1158 1198.22 46.5507C1198.22 49.9855 1196.16 52.0656 1192.88 52.0656C1189.6 52.0656 1187.54 50.0602 1187.54 46.5507ZM1194.82 46.5507C1194.82 44.6626 1194.08 43.5532 1192.91 43.5532C1191.73 43.5532 1191.01 44.6199 1191.01 46.5507C1191.01 48.4814 1191.73 49.5375 1192.91 49.5375C1194.08 49.5375 1194.84 48.4815 1194.84 46.5613L1194.82 46.5507ZM1199.59 52.4816H1202.9C1203.05 52.8377 1203.31 53.1346 1203.65 53.3272C1203.98 53.5199 1204.37 53.5975 1204.76 53.5483C1206.07 53.5483 1206.75 52.8443 1206.75 51.7989V49.8788H1206.76C1206.48 50.4767 1206.02 50.975 1205.45 51.3082C1204.88 51.6415 1204.22 51.7939 1203.56 51.7455C1201.05 51.7455 1199.38 49.8362 1199.38 46.5507C1199.38 43.2651 1200.97 41.217 1203.65 41.217C1204.33 41.1808 1205 41.3553 1205.58 41.7164C1206.15 42.0775 1206.6 42.6074 1206.86 43.2331H1206.76V41.3024H1210.16V51.6922C1210.16 54.199 1207.94 55.7671 1204.67 55.7671C1201.7 55.7564 1199.8 54.4017 1199.61 52.4923L1199.59 52.4816ZM1206.76 46.5507C1206.76 44.8759 1205.99 43.8198 1204.78 43.8198C1203.56 43.8198 1202.81 44.8866 1202.81 46.5507C1202.81 48.2148 1203.55 49.1961 1204.78 49.1961C1206 49.1961 1206.76 48.2894 1206.76 46.5507ZM1211.52 46.5507C1211.52 43.1158 1213.65 41.057 1216.86 41.057C1220.06 41.057 1222.2 43.1158 1222.2 46.5507C1222.2 49.9855 1220.13 52.0656 1216.86 52.0656C1213.59 52.0656 1211.54 50.0602 1211.54 46.5507H1211.52ZM1218.8 46.5507C1218.8 44.6626 1218.05 43.5532 1216.89 43.5532C1215.73 43.5532 1214.99 44.6199 1214.99 46.5507C1214.99 48.4814 1215.71 49.5375 1216.89 49.5375C1218.06 49.5375 1218.82 48.4815 1218.82 46.5613L1218.8 46.5507ZM1223.59 38.7743C1223.57 38.4255 1223.66 38.0802 1223.85 37.7828C1224.03 37.4855 1224.3 37.2497 1224.61 37.1058C1224.93 36.9619 1225.29 36.9164 1225.63 36.9752C1225.98 37.034 1226.3 37.1945 1226.55 37.4359C1226.8 37.6773 1226.98 37.9887 1227.05 38.3299C1227.12 38.6711 1227.09 39.0266 1226.96 39.3507C1226.83 39.6747 1226.61 39.9524 1226.32 40.1482C1226.03 40.3439 1225.69 40.4487 1225.34 40.449C1225.12 40.4547 1224.89 40.416 1224.68 40.3352C1224.48 40.2543 1224.29 40.133 1224.13 39.9782C1223.96 39.8234 1223.84 39.6382 1223.75 39.4334C1223.66 39.2285 1223.61 39.0081 1223.61 38.785L1223.59 38.7743ZM1223.59 41.2917H1227.06V51.8095H1223.64L1223.59 41.2917ZM1239.55 46.5507C1239.55 49.9748 1238.01 51.9589 1235.39 51.9589C1234.72 52.0002 1234.05 51.8351 1233.48 51.486C1232.91 51.137 1232.46 50.6207 1232.19 50.0068H1232.12V55.1911H1228.69V41.3237H1232.1V43.2011H1232.16C1232.42 42.5753 1232.87 42.0448 1233.45 41.6821C1234.02 41.3194 1234.69 41.1422 1235.37 41.1744C1238.06 41.153 1239.61 43.1265 1239.61 46.5613L1239.55 46.5507ZM1236.05 46.5507C1236.05 44.8866 1235.27 43.8092 1234.07 43.8092C1232.86 43.8092 1232.1 44.8759 1232.09 46.5507C1232.08 48.2254 1232.86 49.2815 1234.07 49.2815C1235.27 49.2815 1236.12 48.2894 1236.12 46.5613L1236.05 46.5507ZM1245.4 41.0463C1248.27 41.0463 1250.06 42.4011 1250.08 44.5772H1246.95C1246.95 43.8198 1246.32 43.3505 1245.38 43.3505C1244.44 43.3505 1243.99 43.7132 1243.99 44.2572C1243.99 44.8012 1244.38 44.9719 1245.17 45.1319L1247.38 45.5799C1249.51 46.028 1250.37 46.8814 1250.37 48.4708C1250.37 50.6042 1248.39 52.0549 1245.45 52.0549C1242.51 52.0549 1240.6 50.6468 1240.46 48.5028H1243.79C1243.88 49.2815 1244.5 49.7402 1245.51 49.7402C1246.51 49.7402 1246.98 49.4202 1246.98 48.8548C1246.98 48.2894 1246.66 48.1934 1245.84 48.0228L1243.85 47.6067C1241.79 47.1694 1240.71 46.092 1240.71 44.4812C1240.77 42.3904 1242.57 41.057 1245.46 41.057L1245.4 41.0463ZM1261.85 51.7989H1258.53V49.8255H1258.46C1258.28 50.4837 1257.87 51.0591 1257.31 51.4565C1256.76 51.8541 1256.08 52.05 1255.4 52.0122C1254.88 52.0291 1254.37 51.9366 1253.89 51.7411C1253.41 51.5455 1252.98 51.2511 1252.62 50.8774C1252.27 50.5037 1251.99 50.0591 1251.82 49.5726C1251.65 49.0861 1251.58 48.5689 1251.63 48.0548V41.3024H1255.06V47.3187C1255.06 48.5561 1255.71 49.2282 1256.78 49.2282C1257.03 49.2262 1257.27 49.1707 1257.5 49.0652C1257.73 48.9597 1257.93 48.8068 1258.09 48.6167C1258.25 48.4266 1258.38 48.2038 1258.45 47.9633C1258.51 47.7228 1258.53 47.4703 1258.49 47.2227V41.3024H1261.91L1261.85 51.7989ZM1263.5 41.2917H1266.84V43.3185H1266.91C1267.1 42.6692 1267.49 42.0992 1268.03 41.6978C1268.58 41.2963 1269.24 41.086 1269.91 41.0997C1270.59 41.0409 1271.27 41.2367 1271.81 41.649C1272.35 42.0613 1272.72 42.6604 1272.84 43.3291H1272.99C1273.2 42.6569 1273.63 42.0738 1274.21 41.6706C1274.79 41.2674 1275.49 41.0667 1276.19 41.0997C1276.66 41.0819 1277.13 41.1631 1277.57 41.3382C1278 41.5132 1278.39 41.778 1278.72 42.1154C1279.05 42.4527 1279.3 42.8549 1279.46 43.2958C1279.62 43.7365 1279.68 44.2059 1279.64 44.6732V51.8095H1276.19V45.5479C1276.19 44.4812 1275.69 43.8838 1274.72 43.8838C1274.5 43.8803 1274.29 43.9234 1274.09 44.0101C1273.9 44.0968 1273.72 44.2251 1273.58 44.3862C1273.43 44.5473 1273.33 44.7374 1273.26 44.9434C1273.2 45.1495 1273.19 45.3666 1273.21 45.5799V51.8095H1269.95V45.5159C1269.95 44.4492 1269.42 43.8838 1268.48 43.8838C1268.26 43.8821 1268.05 43.9269 1267.85 44.0154C1267.65 44.1037 1267.47 44.2335 1267.33 44.3962C1267.18 44.5589 1267.07 44.7506 1267.01 44.9584C1266.95 45.1663 1266.93 45.3855 1266.95 45.6013V51.8095H1263.53L1263.5 41.2917Z" fill="#282938"/>
<path d="M1175.96 38.8063C1175.96 36.6832 1175.32 34.6096 1174.12 32.857C1172.92 31.1044 1171.21 29.7547 1169.23 28.9845C1167.25 28.2143 1165.08 28.0597 1163.01 28.5407C1160.94 29.0218 1159.07 30.1162 1157.63 31.6806H1144.3V59.778H1172.44V46.6467C1173.55 45.6599 1174.43 44.4517 1175.04 43.1007C1175.64 41.7497 1175.96 40.2865 1175.96 38.8063ZM1170.54 38.8063C1170.54 39.8236 1170.24 40.8188 1169.68 41.6658C1169.12 42.5127 1168.31 43.1733 1167.37 43.5641C1166.43 43.9549 1165.4 44.0583 1164.4 43.861C1163.4 43.6639 1162.48 43.1751 1161.76 42.4564C1161.04 41.7378 1160.54 40.8216 1160.35 39.824C1160.15 38.8263 1160.25 37.792 1160.64 36.8519C1161.03 35.9117 1161.69 35.1081 1162.53 34.5426C1163.38 33.9772 1164.38 33.6754 1165.39 33.6754C1166.76 33.6754 1168.07 34.2156 1169.03 35.1775C1170 36.1395 1170.54 37.4445 1170.54 38.8063ZM1167.03 54.3698H1149.71V37.0889H1154.99C1154.89 37.6558 1154.83 38.2303 1154.83 38.8063C1154.83 41.6034 1155.95 44.2852 1157.93 46.2631C1159.91 48.2409 1162.59 49.3533 1165.39 49.3562C1165.94 49.3532 1166.49 49.3069 1167.03 49.2175V54.3698Z" fill="#282938"/>
</g>
<path d="M1.368 18.2V13.298H10.526V41H5.054V18.2H1.368ZM15.7816 26.788C15.7816 22.4053 16.5669 18.9727 18.1376 16.49C19.7336 14.0073 22.3682 12.766 26.0416 12.766C29.7149 12.766 32.3369 14.0073 33.9076 16.49C35.5036 18.9727 36.3016 22.4053 36.3016 26.788C36.3016 31.196 35.5036 34.654 33.9076 37.162C32.3369 39.67 29.7149 40.924 26.0416 40.924C22.3682 40.924 19.7336 39.67 18.1376 37.162C16.5669 34.654 15.7816 31.196 15.7816 26.788ZM31.0576 26.788C31.0576 24.9133 30.9309 23.3427 30.6776 22.076C30.4496 20.784 29.9682 19.7327 29.2336 18.922C28.5242 18.1113 27.4602 17.706 26.0416 17.706C24.6229 17.706 23.5462 18.1113 22.8116 18.922C22.1022 19.7327 21.6209 20.784 21.3676 22.076C21.1396 23.3427 21.0256 24.9133 21.0256 26.788C21.0256 28.7133 21.1396 30.3347 21.3676 31.652C21.5956 32.944 22.0769 33.9953 22.8116 34.806C23.5462 35.5913 24.6229 35.984 26.0416 35.984C27.4602 35.984 28.5369 35.5913 29.2716 34.806C30.0062 33.9953 30.4876 32.944 30.7156 31.652C30.9436 30.3347 31.0576 28.7133 31.0576 26.788ZM40.348 26.788C40.348 22.4053 41.1333 18.9727 42.704 16.49C44.3 14.0073 46.9347 12.766 50.608 12.766C54.2813 12.766 56.9033 14.0073 58.474 16.49C60.07 18.9727 60.868 22.4053 60.868 26.788C60.868 31.196 60.07 34.654 58.474 37.162C56.9033 39.67 54.2813 40.924 50.608 40.924C46.9347 40.924 44.3 39.67 42.704 37.162C41.1333 34.654 40.348 31.196 40.348 26.788ZM55.624 26.788C55.624 24.9133 55.4973 23.3427 55.244 22.076C55.016 20.784 54.5347 19.7327 53.8 18.922C53.0907 18.1113 52.0267 17.706 50.608 17.706C49.1893 17.706 48.1127 18.1113 47.378 18.922C46.6687 19.7327 46.1873 20.784 45.934 22.076C45.706 23.3427 45.592 24.9133 45.592 26.788C45.592 28.7133 45.706 30.3347 45.934 31.652C46.162 32.944 46.6433 33.9953 47.378 34.806C48.1127 35.5913 49.1893 35.984 50.608 35.984C52.0267 35.984 53.1033 35.5913 53.838 34.806C54.5727 33.9953 55.054 32.944 55.282 31.652C55.51 30.3347 55.624 28.7133 55.624 26.788ZM67.8784 41.266C66.9157 41.266 66.1177 40.9747 65.4844 40.392C64.8764 39.784 64.5724 39.0367 64.5724 38.15C64.5724 37.2633 64.8764 36.5287 65.4844 35.946C66.1177 35.338 66.9157 35.034 67.8784 35.034C68.8157 35.034 69.5884 35.338 70.1964 35.946C70.8044 36.5287 71.1084 37.2633 71.1084 38.15C71.1084 39.0367 70.8044 39.784 70.1964 40.392C69.5884 40.9747 68.8157 41.266 67.8784 41.266ZM74.7855 26.788C74.7855 22.4053 75.5708 18.9727 77.1415 16.49C78.7375 14.0073 81.3722 12.766 85.0455 12.766C88.7188 12.766 91.3408 14.0073 92.9115 16.49C94.5075 18.9727 95.3055 22.4053 95.3055 26.788C95.3055 31.196 94.5075 34.654 92.9115 37.162C91.3408 39.67 88.7188 40.924 85.0455 40.924C81.3722 40.924 78.7375 39.67 77.1415 37.162C75.5708 34.654 74.7855 31.196 74.7855 26.788ZM90.0615 26.788C90.0615 24.9133 89.9348 23.3427 89.6815 22.076C89.4535 20.784 88.9722 19.7327 88.2375 18.922C87.5282 18.1113 86.4642 17.706 85.0455 17.706C83.6268 17.706 82.5502 18.1113 81.8155 18.922C81.1062 19.7327 80.6248 20.784 80.3715 22.076C80.1435 23.3427 80.0295 24.9133 80.0295 26.788C80.0295 28.7133 80.1435 30.3347 80.3715 31.652C80.5995 32.944 81.0808 33.9953 81.8155 34.806C82.5502 35.5913 83.6268 35.984 85.0455 35.984C86.4642 35.984 87.5408 35.5913 88.2755 34.806C89.0102 33.9953 89.4915 32.944 89.7195 31.652C89.9475 30.3347 90.0615 28.7133 90.0615 26.788ZM99.3519 26.788C99.3519 22.4053 100.137 18.9727 101.708 16.49C103.304 14.0073 105.939 12.766 109.612 12.766C113.285 12.766 115.907 14.0073 117.478 16.49C119.074 18.9727 119.872 22.4053 119.872 26.788C119.872 31.196 119.074 34.654 117.478 37.162C115.907 39.67 113.285 40.924 109.612 40.924C105.939 40.924 103.304 39.67 101.708 37.162C100.137 34.654 99.3519 31.196 99.3519 26.788ZM114.628 26.788C114.628 24.9133 114.501 23.3427 114.248 22.076C114.02 20.784 113.539 19.7327 112.804 18.922C112.095 18.1113 111.031 17.706 109.612 17.706C108.193 17.706 107.117 18.1113 106.382 18.922C105.673 19.7327 105.191 20.784 104.938 22.076C104.71 23.3427 104.596 24.9133 104.596 26.788C104.596 28.7133 104.71 30.3347 104.938 31.652C105.166 32.944 105.647 33.9953 106.382 34.806C107.117 35.5913 108.193 35.984 109.612 35.984C111.031 35.984 112.107 35.5913 112.842 34.806C113.577 33.9953 114.058 32.944 114.286 31.652C114.514 30.3347 114.628 28.7133 114.628 26.788ZM123.918 26.788C123.918 22.4053 124.704 18.9727 126.274 16.49C127.87 14.0073 130.505 12.766 134.178 12.766C137.852 12.766 140.474 14.0073 142.044 16.49C143.64 18.9727 144.438 22.4053 144.438 26.788C144.438 31.196 143.64 34.654 142.044 37.162C140.474 39.67 137.852 40.924 134.178 40.924C130.505 40.924 127.87 39.67 126.274 37.162C124.704 34.654 123.918 31.196 123.918 26.788ZM139.194 26.788C139.194 24.9133 139.068 23.3427 138.814 22.076C138.586 20.784 138.105 19.7327 137.37 18.922C136.661 18.1113 135.597 17.706 134.178 17.706C132.76 17.706 131.683 18.1113 130.948 18.922C130.239 19.7327 129.758 20.784 129.504 22.076C129.276 23.3427 129.162 24.9133 129.162 26.788C129.162 28.7133 129.276 30.3347 129.504 31.652C129.732 32.944 130.214 33.9953 130.948 34.806C131.683 35.5913 132.76 35.984 134.178 35.984C135.597 35.984 136.674 35.5913 137.408 34.806C138.143 33.9953 138.624 32.944 138.852 31.652C139.08 30.3347 139.194 28.7133 139.194 26.788ZM168.967 29.79H161.785V37.162H156.769V29.79H149.587V25.154H156.769V17.782H161.785V25.154H168.967V29.79Z" fill="#282938"/>
<path opacity="0.7" d="M7.536 64.848V66.032H2.688V69.792H6.624V70.976H2.688V76H1.232V64.848H7.536ZM10.0465 65.808C9.76917 65.808 9.5345 65.712 9.3425 65.52C9.1505 65.328 9.0545 65.0933 9.0545 64.816C9.0545 64.5387 9.1505 64.304 9.3425 64.112C9.5345 63.92 9.76917 63.824 10.0465 63.824C10.3132 63.824 10.5372 63.92 10.7185 64.112C10.9105 64.304 11.0065 64.5387 11.0065 64.816C11.0065 65.0933 10.9105 65.328 10.7185 65.52C10.5372 65.712 10.3132 65.808 10.0465 65.808ZM10.7505 67.232V76H9.2945V67.232H10.7505ZM17.504 67.072C18.5707 67.072 19.4347 67.3973 20.096 68.048C20.7573 68.688 21.088 69.616 21.088 70.832V76H19.648V71.04C19.648 70.1653 19.4293 69.4987 18.992 69.04C18.5547 68.5707 17.9573 68.336 17.2 68.336C16.432 68.336 15.8187 68.576 15.36 69.056C14.912 69.536 14.688 70.2347 14.688 71.152V76H13.232V67.232H14.688V68.48C14.976 68.032 15.3653 67.6853 15.856 67.44C16.3573 67.1947 16.9067 67.072 17.504 67.072ZM26.5704 76.144C25.8984 76.144 25.2957 76.032 24.7624 75.808C24.229 75.5733 23.8077 75.2533 23.4984 74.848C23.189 74.432 23.0184 73.9573 22.9864 73.424H24.4904C24.533 73.8613 24.7357 74.2187 25.0984 74.496C25.4717 74.7733 25.957 74.912 26.5544 74.912C27.109 74.912 27.5464 74.7893 27.8664 74.544C28.1864 74.2987 28.3464 73.9893 28.3464 73.616C28.3464 73.232 28.1757 72.9493 27.8344 72.768C27.493 72.576 26.965 72.3893 26.2504 72.208C25.5997 72.0373 25.0664 71.8667 24.6504 71.696C24.245 71.5147 23.893 71.2533 23.5944 70.912C23.3064 70.56 23.1624 70.1013 23.1624 69.536C23.1624 69.088 23.2957 68.6773 23.5624 68.304C23.829 67.9307 24.2077 67.6373 24.6984 67.424C25.189 67.2 25.749 67.088 26.3784 67.088C27.349 67.088 28.133 67.3333 28.7304 67.824C29.3277 68.3147 29.6477 68.9867 29.6904 69.84H28.2344C28.2024 69.3813 28.0157 69.0133 27.6744 68.736C27.3437 68.4587 26.8957 68.32 26.3304 68.32C25.8077 68.32 25.3917 68.432 25.0824 68.656C24.773 68.88 24.6184 69.1733 24.6184 69.536C24.6184 69.824 24.709 70.064 24.8904 70.256C25.0824 70.4373 25.317 70.5867 25.5944 70.704C25.8824 70.8107 26.277 70.9333 26.7784 71.072C27.4077 71.2427 27.9197 71.4133 28.3144 71.584C28.709 71.744 29.045 71.9893 29.3224 72.32C29.6104 72.6507 29.7597 73.0827 29.7704 73.616C29.7704 74.096 29.637 74.528 29.3704 74.912C29.1037 75.296 28.725 75.6 28.2344 75.824C27.7544 76.0373 27.1997 76.144 26.5704 76.144ZM43.5058 67.232L40.7698 76H39.2658L37.1538 69.04L35.0418 76H33.5378L30.7858 67.232H32.2738L34.2898 74.592L36.4658 67.232H37.9538L40.0818 74.608L42.0658 67.232H43.5058ZM52.9508 71.28C52.9508 71.5573 52.9348 71.8507 52.9028 72.16H45.8948C45.9481 73.024 46.2414 73.7013 46.7748 74.192C47.3188 74.672 47.9748 74.912 48.7428 74.912C49.3721 74.912 49.8948 74.768 50.3108 74.48C50.7374 74.1813 51.0361 73.7867 51.2068 73.296H52.7748C52.5401 74.1387 52.0708 74.8267 51.3668 75.36C50.6628 75.8827 49.7881 76.144 48.7428 76.144C47.9108 76.144 47.1641 75.9573 46.5028 75.584C45.8521 75.2107 45.3401 74.6827 44.9668 74C44.5934 73.3067 44.4068 72.5067 44.4068 71.6C44.4068 70.6933 44.5881 69.8987 44.9508 69.216C45.3134 68.5333 45.8201 68.0107 46.4708 67.648C47.1321 67.2747 47.8894 67.088 48.7428 67.088C49.5748 67.088 50.3108 67.2693 50.9508 67.632C51.5908 67.9947 52.0814 68.496 52.4228 69.136C52.7748 69.7653 52.9508 70.48 52.9508 71.28ZM51.4468 70.976C51.4468 70.4213 51.3241 69.9467 51.0788 69.552C50.8334 69.1467 50.4974 68.8427 50.0708 68.64C49.6548 68.4267 49.1908 68.32 48.6788 68.32C47.9428 68.32 47.3134 68.5547 46.7908 69.024C46.2788 69.4933 45.9854 70.144 45.9108 70.976H51.4468ZM62.8726 71.28C62.8726 71.5573 62.8566 71.8507 62.8246 72.16H55.8166C55.87 73.024 56.1633 73.7013 56.6966 74.192C57.2406 74.672 57.8966 74.912 58.6646 74.912C59.294 74.912 59.8166 74.768 60.2326 74.48C60.6593 74.1813 60.958 73.7867 61.1286 73.296H62.6966C62.462 74.1387 61.9926 74.8267 61.2886 75.36C60.5846 75.8827 59.71 76.144 58.6646 76.144C57.8326 76.144 57.086 75.9573 56.4246 75.584C55.774 75.2107 55.262 74.6827 54.8886 74C54.5153 73.3067 54.3286 72.5067 54.3286 71.6C54.3286 70.6933 54.51 69.8987 54.8726 69.216C55.2353 68.5333 55.742 68.0107 56.3926 67.648C57.054 67.2747 57.8113 67.088 58.6646 67.088C59.4966 67.088 60.2326 67.2693 60.8726 67.632C61.5126 67.9947 62.0033 68.496 62.3446 69.136C62.6966 69.7653 62.8726 70.48 62.8726 71.28ZM61.3686 70.976C61.3686 70.4213 61.246 69.9467 61.0006 69.552C60.7553 69.1467 60.4193 68.8427 59.9926 68.64C59.5766 68.4267 59.1126 68.32 58.6006 68.32C57.8646 68.32 57.2353 68.5547 56.7126 69.024C56.2006 69.4933 55.9073 70.144 55.8326 70.976H61.3686ZM66.5705 68.432V73.6C66.5705 74.0267 66.6612 74.3307 66.8425 74.512C67.0238 74.6827 67.3385 74.768 67.7865 74.768H68.8585V76H67.5465C66.7358 76 66.1278 75.8133 65.7225 75.44C65.3172 75.0667 65.1145 74.4533 65.1145 73.6V68.432H63.9785V67.232H65.1145V65.024H66.5705V67.232H68.8585V68.432H66.5705ZM76.3123 64.848V71.904C76.3123 72.896 76.5523 73.632 77.0323 74.112C77.5229 74.592 78.2003 74.832 79.0643 74.832C79.9176 74.832 80.5843 74.592 81.0643 74.112C81.5549 73.632 81.8003 72.896 81.8003 71.904V64.848H83.2563V71.888C83.2563 72.816 83.0696 73.6 82.6962 74.24C82.3229 74.8693 81.8163 75.3387 81.1763 75.648C80.5469 75.9573 79.8376 76.112 79.0483 76.112C78.2589 76.112 77.5443 75.9573 76.9043 75.648C76.2749 75.3387 75.7736 74.8693 75.4003 74.24C75.0376 73.6 74.8563 72.816 74.8563 71.888V64.848H76.3123ZM88.7891 76.144C88.1171 76.144 87.5145 76.032 86.9811 75.808C86.4478 75.5733 86.0265 75.2533 85.7171 74.848C85.4078 74.432 85.2371 73.9573 85.2051 73.424H86.7091C86.7518 73.8613 86.9545 74.2187 87.3171 74.496C87.6905 74.7733 88.1758 74.912 88.7731 74.912C89.3278 74.912 89.7651 74.7893 90.0851 74.544C90.4051 74.2987 90.5651 73.9893 90.5651 73.616C90.5651 73.232 90.3945 72.9493 90.0531 72.768C89.7118 72.576 89.1838 72.3893 88.4691 72.208C87.8185 72.0373 87.2851 71.8667 86.8691 71.696C86.4638 71.5147 86.1118 71.2533 85.8131 70.912C85.5251 70.56 85.3811 70.1013 85.3811 69.536C85.3811 69.088 85.5145 68.6773 85.7811 68.304C86.0478 67.9307 86.4265 67.6373 86.9171 67.424C87.4078 67.2 87.9678 67.088 88.5971 67.088C89.5678 67.088 90.3518 67.3333 90.9491 67.824C91.5465 68.3147 91.8665 68.9867 91.9091 69.84H90.4531C90.4211 69.3813 90.2345 69.0133 89.8931 68.736C89.5625 68.4587 89.1145 68.32 88.5491 68.32C88.0265 68.32 87.6105 68.432 87.3011 68.656C86.9918 68.88 86.8371 69.1733 86.8371 69.536C86.8371 69.824 86.9278 70.064 87.1091 70.256C87.3011 70.4373 87.5358 70.5867 87.8131 70.704C88.1011 70.8107 88.4958 70.9333 88.9971 71.072C89.6265 71.2427 90.1385 71.4133 90.5331 71.584C90.9278 71.744 91.2638 71.9893 91.5411 72.32C91.8291 72.6507 91.9785 73.0827 91.9891 73.616C91.9891 74.096 91.8558 74.528 91.5891 74.912C91.3225 75.296 90.9438 75.6 90.4531 75.824C89.9731 76.0373 89.4185 76.144 88.7891 76.144ZM102.045 71.28C102.045 71.5573 102.029 71.8507 101.997 72.16H94.9885C95.0418 73.024 95.3352 73.7013 95.8685 74.192C96.4125 74.672 97.0685 74.912 97.8365 74.912C98.4658 74.912 98.9885 74.768 99.4045 74.48C99.8312 74.1813 100.13 73.7867 100.301 73.296H101.869C101.634 74.1387 101.165 74.8267 100.461 75.36C99.7565 75.8827 98.8818 76.144 97.8365 76.144C97.0045 76.144 96.2578 75.9573 95.5965 75.584C94.9458 75.2107 94.4338 74.6827 94.0605 74C93.6872 73.3067 93.5005 72.5067 93.5005 71.6C93.5005 70.6933 93.6818 69.8987 94.0445 69.216C94.4072 68.5333 94.9138 68.0107 95.5645 67.648C96.2258 67.2747 96.9832 67.088 97.8365 67.088C98.6685 67.088 99.4045 67.2693 100.045 67.632C100.685 67.9947 101.175 68.496 101.517 69.136C101.869 69.7653 102.045 70.48 102.045 71.28ZM100.541 70.976C100.541 70.4213 100.418 69.9467 100.173 69.552C99.9272 69.1467 99.5912 68.8427 99.1645 68.64C98.7485 68.4267 98.2845 68.32 97.7725 68.32C97.0365 68.32 96.4072 68.5547 95.8845 69.024C95.3725 69.4933 95.0792 70.144 95.0045 70.976H100.541ZM105.422 68.656C105.678 68.1547 106.041 67.7653 106.51 67.488C106.99 67.2107 107.572 67.072 108.254 67.072V68.576H107.87C106.238 68.576 105.422 69.4613 105.422 71.232V76H103.966V67.232H105.422V68.656ZM113.039 76.144C112.367 76.144 111.764 76.032 111.231 75.808C110.698 75.5733 110.276 75.2533 109.967 74.848C109.658 74.432 109.487 73.9573 109.455 73.424H110.959C111.002 73.8613 111.204 74.2187 111.567 74.496C111.94 74.7733 112.426 74.912 113.023 74.912C113.578 74.912 114.015 74.7893 114.335 74.544C114.655 74.2987 114.815 73.9893 114.815 73.616C114.815 73.232 114.644 72.9493 114.303 72.768C113.962 72.576 113.434 72.3893 112.719 72.208C112.068 72.0373 111.535 71.8667 111.119 71.696C110.714 71.5147 110.362 71.2533 110.063 70.912C109.775 70.56 109.631 70.1013 109.631 69.536C109.631 69.088 109.764 68.6773 110.031 68.304C110.298 67.9307 110.676 67.6373 111.167 67.424C111.658 67.2 112.218 67.088 112.847 67.088C113.818 67.088 114.602 67.3333 115.199 67.824C115.796 68.3147 116.116 68.9867 116.159 69.84H114.703C114.671 69.3813 114.484 69.0133 114.143 68.736C113.812 68.4587 113.364 68.32 112.799 68.32C112.276 68.32 111.86 68.432 111.551 68.656C111.242 68.88 111.087 69.1733 111.087 69.536C111.087 69.824 111.178 70.064 111.359 70.256C111.551 70.4373 111.786 70.5867 112.063 70.704C112.351 70.8107 112.746 70.9333 113.247 71.072C113.876 71.2427 114.388 71.4133 114.783 71.584C115.178 71.744 115.514 71.9893 115.791 72.32C116.079 72.6507 116.228 73.0827 116.239 73.616C116.239 74.096 116.106 74.528 115.839 74.912C115.572 75.296 115.194 75.6 114.703 75.824C114.223 76.0373 113.668 76.144 113.039 76.144Z" fill="#282938"/>
<defs>
<clipPath id="clip0_904_1037">
<rect width="161.815" height="32" fill="white" transform="translate(265 28)"/>
</clipPath>
<clipPath id="clip1_904_1037">
<rect width="135.055" height="32" fill="white" transform="translate(710.815 28)"/>
</clipPath>
<clipPath id="clip2_904_1037">
<rect width="153.743" height="32" fill="white" transform="translate(930.724 28)"/>
</clipPath>
</defs>
</svg>
