<svg width="122" height="25" viewBox="0 0 122 25" fill="none" xmlns="http://www.w3.org/2000/svg">
<g clip-path="url(#clip0_10460_292)">
<path d="M121.783 18.8719V21.891H119.251C116.548 21.806 115.104 20.3467 115.104 17.6055V10.7102H113.336V8.06174H115.104V5.09668H118.841V8.03086H121.698V10.6716H118.841V17.2349C118.841 18.1229 119.019 18.8333 120.386 18.8333L121.783 18.8719Z" fill="white"/>
<path d="M98.4425 15.0033V14.8026C98.4021 13.9145 98.5374 13.0272 98.8405 12.1914C99.1437 11.3557 99.6088 10.5881 100.209 9.93242C100.81 9.27679 101.533 8.7461 102.339 8.37076C103.145 7.99541 104.017 7.78281 104.905 7.74512C105.083 7.74512 105.268 7.74512 105.446 7.74512C108.975 7.74512 112.071 9.79904 112.071 14.6945V15.7369H102.265C102.365 17.9916 103.585 19.2656 105.639 19.2656C107.407 19.2656 108.233 18.4935 108.473 17.3661H112.002C111.569 20.308 109.222 21.945 105.508 21.945C101.431 21.9141 98.4425 19.3351 98.4425 15.0033ZM108.396 13.3741C108.264 11.3202 107.23 10.3318 105.431 10.3318C103.631 10.3318 102.597 11.4437 102.342 13.3741H108.396Z" fill="white"/>
<path d="M83.1848 15.0033V14.8026C83.1443 13.9157 83.279 13.0296 83.5812 12.1949C83.8834 11.3601 84.3471 10.5931 84.9459 9.93769C85.5447 9.28226 86.2668 8.75126 87.0709 8.37505C87.875 7.99883 88.7453 7.78478 89.6322 7.74512C89.8098 7.74512 89.9951 7.74512 90.1727 7.74512C93.7015 7.74512 96.8055 9.79904 96.8055 14.6945V15.7369H87.0069C87.1073 17.9916 88.3273 19.2656 90.3812 19.2656C92.1494 19.2656 92.9756 18.4935 93.215 17.3661H96.7437C96.3036 20.308 93.9563 21.945 90.2422 21.945C86.173 21.9141 83.1848 19.3351 83.1848 15.0033ZM93.1378 13.3741C93.0065 11.3202 91.9718 10.3318 90.1727 10.3318C88.3736 10.3318 87.3698 11.4746 87.0841 13.3664L93.1378 13.3741Z" fill="white"/>
<path d="M61.7715 8.03027H65.7249L68.1417 17.188L70.7902 8.03027H73.8788L76.2725 17.188L78.8206 8.03027H82.442L78.1488 21.6356H74.4425L72.126 13.0956L69.6474 21.6356H65.8948L61.7715 8.03027Z" fill="white"/>
<path d="M49.209 17.358H52.7377C52.8999 18.5858 53.5099 19.2884 55.1314 19.2884C56.583 19.2884 57.2548 18.7402 57.2548 17.8059C57.2548 16.8716 56.4827 16.4778 54.506 16.1998C50.8846 15.6516 49.487 14.6092 49.487 11.953C49.487 9.11918 52.0814 7.71387 54.892 7.71387C57.9111 7.71387 60.189 8.81032 60.5133 11.9375H57.0309C57.0087 11.6958 56.9388 11.4608 56.8252 11.2462C56.7117 11.0317 56.5567 10.8417 56.3693 10.6873C56.1819 10.533 55.9658 10.4173 55.7335 10.3469C55.5011 10.2766 55.2571 10.2529 55.0156 10.2774H54.8997C53.6797 10.2774 52.9694 10.8488 52.9694 11.6827C52.9694 12.5167 53.6257 12.8796 55.6178 13.1653C58.9999 13.6749 60.8916 14.532 60.8916 17.443C60.8916 20.354 58.7528 21.9137 55.17 21.9137C51.5872 21.9137 49.3094 20.2999 49.209 17.358Z" fill="white"/>
<path d="M34.2148 8.03H37.9521V10.1843C38.3733 9.39357 39.0127 8.74039 39.7943 8.30239C40.5758 7.86438 41.4667 7.65996 42.361 7.71342C45.0095 7.71342 46.9322 9.32721 46.9322 13.0104V21.6662H43.2413V13.5509C43.2413 11.7054 42.5232 10.8252 40.8553 10.8252C40.5028 10.7945 40.1477 10.8337 39.8104 10.9406C39.4731 11.0476 39.1602 11.22 38.8898 11.4482C38.6193 11.6763 38.3965 11.9556 38.2343 12.2701C38.072 12.5846 37.9735 12.928 37.9443 13.2806C37.925 13.4448 37.925 13.6107 37.9443 13.7748V21.6353H34.2148V8.03Z" fill="white"/>
<path d="M27.0012 4.60972C26.9877 4.2371 27.085 3.86885 27.2809 3.55157C27.4768 3.2343 27.7624 2.98228 28.1015 2.82742C28.4407 2.67256 28.8182 2.62182 29.1863 2.68162C29.5543 2.74143 29.8963 2.90909 30.169 3.16339C30.4417 3.41768 30.6328 3.74717 30.7181 4.11014C30.8034 4.4731 30.7791 4.85323 30.6483 5.20238C30.5175 5.55153 30.286 5.85401 29.9831 6.07153C29.6803 6.28904 29.3197 6.4118 28.9471 6.42428H28.8776C28.6463 6.43891 28.4144 6.40774 28.1952 6.33255C27.976 6.25736 27.7737 6.13963 27.6001 5.98611C27.4265 5.83258 27.2849 5.6463 27.1835 5.43793C27.082 5.22956 27.0227 5.00321 27.009 4.77187C27.0025 4.71807 27 4.66388 27.0012 4.60972ZM27.0012 8.03035H30.7771V21.6357H27.0167L27.0012 8.03035Z" fill="white"/>
<path d="M12.7715 3.04199H24.709V6.33908H16.9874V11.2577H23.1029V14.4312H16.9797V21.6354H12.7715V3.04199Z" fill="white"/>
<path d="M5.56722 9.12683C5.56722 10.2928 5.56722 11.7135 3.96114 12.2927C5.60582 12.8563 5.56722 14.0532 5.56722 15.3041V19.937C5.56722 20.8172 5.92241 21.35 6.55557 21.4813C6.6947 21.5282 6.84127 21.5491 6.98797 21.543H8.53228V24.6316H5.98418C3.2662 24.6316 1.76823 23.0873 1.76823 20.2227V14.7404C1.74895 14.4589 1.62485 14.1949 1.42043 14.0005C1.216 13.8061 0.946116 13.6954 0.664051 13.6903H0V10.98H0.664051C0.951744 10.9762 1.22693 10.8618 1.43252 10.6605C1.63812 10.4592 1.75833 10.1865 1.76823 9.89899V4.33949C1.76823 1.52114 3.23532 0 5.98418 0H8.55544V3.04228H7.01114C6.86426 3.0427 6.71835 3.06615 6.57873 3.11177C5.94557 3.27392 5.59038 3.79899 5.59038 4.65608L5.56722 9.12683Z" fill="white"/>
</g>
<defs>
<clipPath id="clip0_10460_292">
<rect width="122" height="24.7089" fill="white"/>
</clipPath>
</defs>
</svg>
